<svg width="131" height="131" viewBox="0 0 131 131" fill="none" xmlns="http://www.w3.org/2000/svg">
<g clip-path="url(#clip0)">
<path d="M96.7278 1.29741C93.6918 -0.192309 90.0092 1.06631 88.5205 4.10129L79.5147 22.4539C79.2757 22.9409 79.24 23.5033 79.4155 24.0161C79.5901 24.5288 79.962 24.9514 80.449 25.1904L87.7905 28.7927C88.0801 28.9345 88.3875 29.002 88.6901 29.002C89.4448 29.002 90.1708 28.5814 90.5269 27.8574L99.5317 9.50473C101.021 6.46876 99.7637 2.78712 96.7278 1.29741V1.29741Z" fill="#3FC448"/>
<path d="M42.2926 4.10048C40.8029 1.06452 37.1213 -0.193113 34.0853 1.2966C31.0493 2.78632 29.7907 6.46796 31.2814 9.50392L40.2862 27.8566C40.6412 28.5806 41.3673 29.0011 42.123 29.0011C42.4255 29.0011 42.733 28.9337 43.0226 28.7919L50.3641 25.1886C50.8501 24.9505 51.223 24.528 51.3975 24.0153C51.5731 23.5015 51.5374 22.9401 51.2984 22.4531L42.2926 4.10048Z" fill="#3FC448"/>
<path d="M115.492 55.0303C110.42 55.0303 106.293 59.1562 106.293 64.2294V94.8945C106.293 99.9667 110.42 104.094 115.492 104.094C120.565 104.094 124.692 99.9667 124.692 94.8945V64.2294C124.692 59.1572 120.565 55.0303 115.492 55.0303V55.0303Z" fill="#78D67F"/>
<path d="M100.159 55.0303H30.6526C29.5239 55.0303 28.6085 55.9447 28.6085 57.0744V106.138C28.6085 107.267 29.5239 108.182 30.6526 108.182H38.8302V121.47C38.8302 126.543 42.9572 130.67 48.0293 130.67C53.1025 130.67 57.2295 126.543 57.2295 121.47V108.182H73.5836V121.47C73.5836 126.543 77.7106 130.67 82.7827 130.67C87.8559 130.67 91.9829 126.543 91.9829 121.47V108.182H100.159C101.289 108.182 102.205 107.267 102.205 106.138V57.0744C102.205 55.9447 101.289 55.0303 100.159 55.0303V55.0303Z" fill="#78D67F"/>
<path d="M34.7419 106.138V57.0744C34.7419 55.9447 35.6573 55.0303 36.786 55.0303H30.6526C29.5239 55.0303 28.6085 55.9447 28.6085 57.0744V106.138C28.6085 107.267 29.5239 108.182 30.6526 108.182H36.786C35.6573 108.182 34.7419 107.267 34.7419 106.138Z" fill="#65D06C"/>
<path d="M79.717 121.47V108.182H73.5836V121.47C73.5836 126.542 77.7106 130.669 82.7828 130.669C83.8579 130.669 84.8894 130.483 85.8495 130.142C82.2809 128.876 79.717 125.468 79.717 121.47V121.47Z" fill="#65D06C"/>
<path d="M44.9636 121.47V108.182H38.8302V121.47C38.8302 126.542 42.9572 130.669 48.0293 130.669C49.1045 130.669 50.136 130.483 51.096 130.142C47.5265 128.876 44.9636 125.468 44.9636 121.47V121.47Z" fill="#65D06C"/>
<path d="M15.3201 55.0303C10.2479 55.0303 6.12091 59.1562 6.12091 64.2294V94.8945C6.12091 99.9667 10.2479 104.094 15.3201 104.094C20.3932 104.094 24.5202 99.9667 24.5202 94.8945V64.2294C24.5202 59.1572 20.3932 55.0303 15.3201 55.0303V55.0303Z" fill="#65D06C"/>
<path d="M65.406 12.0996C45.1163 12.0996 28.6085 28.6065 28.6085 48.8972C28.6085 50.0259 29.5239 50.9413 30.6526 50.9413H100.159C101.289 50.9413 102.205 50.0259 102.205 48.8972C102.205 28.6065 85.6967 12.0996 65.406 12.0996ZM53.1402 36.6313C53.1402 38.8857 51.3063 40.7196 49.0519 40.7196C46.7975 40.7196 44.9636 38.8857 44.9636 36.6313C44.9636 34.3769 46.7975 32.543 49.0519 32.543C51.3063 32.543 53.1402 34.3769 53.1402 36.6313ZM77.6719 36.6313C77.6719 34.3769 79.5068 32.543 81.7612 32.543C84.0156 32.543 85.8495 34.3769 85.8495 36.6313C85.8495 38.8857 84.0156 40.7196 81.7612 40.7196C79.5068 40.7196 77.6719 38.8857 77.6719 36.6313Z" fill="#78D67F"/>
<path d="M36.786 48.8972C36.786 29.9891 51.1218 14.3679 69.4953 12.3277C68.1524 12.179 66.7886 12.0996 65.406 12.0996C45.1163 12.0996 28.6085 28.6065 28.6085 48.8972C28.6085 50.0259 29.5239 50.9413 30.6526 50.9413H38.8302C37.7015 50.9413 36.786 50.0259 36.786 48.8972Z" fill="#65D06C"/>
</g>
<defs>
<clipPath id="clip0">
<rect width="130" height="130" fill="white" transform="translate(0.281067 0.669922)"/>
</clipPath>
</defs>
</svg>
