<svg width="131" height="131" viewBox="0 0 131 131" fill="none" xmlns="http://www.w3.org/2000/svg">
<g clip-path="url(#clip0)">
<path d="M85.2107 21.1359C89.3514 16.1311 92.2614 9.33379 92.1154 2.41027C92.0908 1.24763 91.0302 0.384353 89.8805 0.559802C83.8053 1.48808 77.0141 5.29287 72.8104 10.2143C68.936 14.694 65.4977 21.6556 65.7561 28.554C65.795 29.5935 66.6732 30.422 67.713 30.3925C74.4184 30.2028 81.0385 26.1876 85.2107 21.1359Z" fill="#D6D6D8"/>
<path d="M70.9881 28.5539C70.5872 17.8591 78.6561 5.36743 91.7531 1.34022C91.342 0.775024 90.6314 0.4452 89.8808 0.559712C83.8056 1.48799 77.0144 5.29278 72.8107 10.2142C68.9363 14.6939 65.4977 21.6558 65.7564 28.5539C65.7952 29.5934 66.6735 30.4219 67.7133 30.3924C69.0135 30.3556 70.3102 30.1736 71.5866 29.8694C71.2349 29.5363 71.0074 29.0714 70.9881 28.5539Z" fill="#C2C2C4"/>
<path d="M117.574 95.1688C113.365 93.0495 101.747 85.7357 101.604 69.5157C101.481 56.2381 110.291 48.5176 114.039 45.8219C114.929 45.1818 115.124 43.9293 114.448 43.0667C111.334 39.0969 107.693 36.5505 104.195 34.8999C104.197 34.8996 104.199 34.8991 104.201 34.8988C103.748 34.6848 102.973 34.3451 102.352 34.1006C84.7511 27.1722 73.659 37.7918 66.9399 37.7918C61.7955 37.7918 53.8571 31.9792 45.4462 32.1379C34.3939 32.2983 24.2138 38.5673 18.5143 48.4595C9.77032 63.6365 12.6539 84.3836 19.4665 100.553C19.4665 100.553 19.4662 100.553 19.4662 100.553C19.6407 100.967 19.9185 101.611 20.15 102.13C20.1503 102.13 20.1503 102.13 20.1505 102.129C22.1241 106.561 24.3836 110.612 26.764 114.055C32.2299 121.955 38.7504 130.855 47.318 130.528C55.5641 130.201 58.6816 125.196 68.6469 125.196C78.6058 125.196 81.4151 130.528 90.1342 130.369C99.01 130.201 104.63 122.307 110.059 114.369C114.837 107.394 117.473 100.586 118.529 97.5215C118.844 96.608 118.438 95.6035 117.574 95.1688Z" fill="#D6D6D8"/>
<path d="M31.9957 114.055C29.6153 110.613 27.3558 106.562 25.3822 102.13C25.382 102.13 25.382 102.131 25.3817 102.131C25.1504 101.612 24.8749 100.973 24.6979 100.554C24.6979 100.554 24.6982 100.554 24.6982 100.554C17.9275 84.4846 14.9708 63.6909 23.746 48.4603C29.0098 39.3248 38.0956 33.2836 48.1601 32.286C47.2628 32.1781 46.3577 32.1217 45.4464 32.1387C34.3941 32.2992 24.214 38.5681 18.5146 48.4603C9.77054 63.6373 12.6542 84.3845 19.4667 100.554C19.4667 100.554 19.4665 100.554 19.4665 100.554C19.6409 100.968 19.9187 101.612 20.1502 102.131C20.1505 102.131 20.1507 102.131 20.1507 102.13C22.1243 106.562 24.3839 110.613 26.764 114.055C32.2298 121.956 38.7504 130.856 47.3179 130.529C48.1609 130.495 48.948 130.411 49.6965 130.29C42.509 128.832 36.8377 121.054 31.9957 114.055Z" fill="#C2C2C4"/>
</g>
<defs>
<clipPath id="clip0">
<rect width="130" height="130" fill="white" transform="translate(0.852356 0.537109)"/>
</clipPath>
</defs>
</svg>
