<svg width="131" height="131" viewBox="0 0 131 131" fill="none" xmlns="http://www.w3.org/2000/svg">
<g clip-path="url(#clip0)">
<path d="M130.974 14.9228V119.064C130.974 120.374 129.912 121.436 128.602 121.436H3.34574C2.03583 121.436 0.973999 120.374 0.973999 119.064V14.9198C0.973999 12.0542 3.29699 9.73145 6.16232 9.73145H125.786C128.649 9.7317 130.974 12.056 130.974 14.9228Z" fill="#DCF9F7"/>
<path d="M37.8059 64.9439L33.867 48.4834H25.9893L22.0505 64.9439L25.9893 74.3143V121.436H33.8371V74.3143H33.867L37.8059 64.9439Z" fill="#B0D1CF"/>
<path d="M107.467 83.1803C107.467 94.276 100.635 103.776 90.9462 107.705V121.438H71.0826V107.705C61.394 103.776 54.5591 94.2763 54.5591 83.1803C54.5591 73.5756 59.6781 65.1659 67.3367 60.5311C68.5583 59.791 70.1198 60.6565 70.1198 62.0822V79.3773H91.906V62.0822C91.906 60.6565 93.4675 59.791 94.689 60.5311C102.348 65.1659 107.467 73.5756 107.467 83.1803Z" fill="#B0D1CF"/>
<path d="M130.974 14.9228V33.4765H0.973999V14.9228C0.973999 12.056 3.29826 9.73145 6.16232 9.73145H125.786C128.649 9.7317 130.974 12.056 130.974 14.9228Z" fill="#B0D1CF"/>
<path d="M130.973 29.3271H0.974792V14.9215C0.974792 12.0557 3.29804 9.73242 6.16388 9.73242H125.784C128.65 9.73242 130.973 12.0557 130.973 14.9215V29.3271Z" fill="#5089DD"/>
<path d="M88.3886 21.854H18.4105C17.3269 21.854 16.4489 20.9758 16.4489 19.8923C16.4489 18.8089 17.3271 17.9307 18.4105 17.9307H88.3886C89.4723 17.9307 90.3503 18.8089 90.3503 19.8923C90.3503 20.9758 89.472 21.854 88.3886 21.854Z" fill="#DCF9F7"/>
<path d="M97.8758 21.6625C96.7921 21.6625 95.9141 20.7843 95.9141 19.7009V19.3601C95.9141 18.2767 96.7924 17.3984 97.8758 17.3984C98.9592 17.3984 99.8375 18.2767 99.8375 19.3601V19.7009C99.8375 20.7843 98.9592 21.6625 97.8758 21.6625Z" fill="#14C4BB"/>
<path d="M105.707 21.6625C104.623 21.6625 103.745 20.7843 103.745 19.7009V19.3601C103.745 18.2767 104.623 17.3984 105.707 17.3984C106.79 17.3984 107.668 18.2767 107.668 19.3601V19.7009C107.668 20.7843 106.79 21.6625 105.707 21.6625Z" fill="#F96982"/>
<path d="M113.537 21.6625C112.454 21.6625 111.576 20.7843 111.576 19.7009V19.3601C111.576 18.2767 112.454 17.3984 113.537 17.3984C114.621 17.3984 115.499 18.2767 115.499 19.3601V19.7009C115.499 20.7843 114.621 21.6625 113.537 21.6625Z" fill="#F9B767"/>
<path d="M53.0862 52.1115H51.7245V50.7498C51.7245 49.6663 50.8463 48.7881 49.7628 48.7881C48.6792 48.7881 47.8012 49.6663 47.8012 50.7498V52.1115H46.4395C45.3558 52.1115 44.4778 52.9897 44.4778 54.0731C44.4778 55.1566 45.356 56.0348 46.4395 56.0348H47.8012V57.3965C47.8012 58.4799 48.6794 59.3582 49.7628 59.3582C50.8465 59.3582 51.7245 58.4799 51.7245 57.3965V56.0348H53.0862C54.1699 56.0348 55.0479 55.1566 55.0479 54.0731C55.0482 52.9897 54.1699 52.1115 53.0862 52.1115Z" fill="#14C4BB"/>
<path d="M110.265 52.2853H108.904V50.9236C108.904 49.8402 108.026 48.9619 106.942 48.9619C105.859 48.9619 104.981 49.8402 104.981 50.9236V52.2853H103.619C102.535 52.2853 101.657 53.1636 101.657 54.247C101.657 55.3304 102.535 56.2087 103.619 56.2087H104.981V57.5703C104.981 58.6538 105.859 59.532 106.942 59.532C108.026 59.532 108.904 58.6538 108.904 57.5703V56.2087H110.265C111.349 56.2087 112.227 55.3304 112.227 54.247C112.227 53.1636 111.349 52.2853 110.265 52.2853Z" fill="#14C4BB"/>
<path d="M82.9761 100.078V121.438H79.0525V100.078C79.0525 98.995 79.9313 98.1162 81.0142 98.1162C82.0971 98.1162 82.9761 98.9952 82.9761 100.078Z" fill="#88A5A0"/>
</g>
<defs>
<clipPath id="clip0">
<rect width="130" height="130" fill="white" transform="translate(0.973999 0.584961)"/>
</clipPath>
</defs>
</svg>
