<svg width="131" height="131" viewBox="0 0 131 131" fill="none" xmlns="http://www.w3.org/2000/svg">
<g clip-path="url(#clip0)">
<path d="M52.6643 94.2861H77.6533V115.829H52.6643V94.2861Z" fill="#1DC2FF"/>
<path d="M70.3555 94.2861H77.6533V115.829H70.3555V94.2861Z" fill="#00A2FF"/>
<path d="M44.6821 113.514H85.6365C87.0905 113.514 88.2688 114.692 88.2688 116.146V118.481C88.2688 119.935 87.0905 121.113 85.6365 121.113H44.6821C43.2281 121.113 42.0498 119.935 42.0498 118.481V116.146C42.0498 114.692 43.2281 113.514 44.6821 113.514Z" fill="#1DC2FF"/>
<path d="M85.3737 113.514H71.9027C73.5015 113.514 74.7978 114.809 74.7978 116.408V118.218C74.7978 119.817 73.5015 121.113 71.9027 121.113H85.3737C86.9725 121.113 88.2688 119.817 88.2688 118.218V116.408C88.2688 114.809 86.9725 113.514 85.3737 113.514Z" fill="#00A2FF"/>
<path d="M126.238 10.041H4.08085C1.91471 10.041 0.159178 11.7965 0.159178 13.9627V95.3894C0.159178 97.5555 1.91471 99.3111 4.08085 99.3111H126.238C128.404 99.3111 130.159 97.5555 130.159 95.3894V13.9627C130.159 11.7965 128.404 10.041 126.238 10.041Z" fill="#1DC2FF"/>
<path d="M126.238 10.041H124.11V88.5815C124.11 90.7467 122.354 92.5032 120.189 92.5032H0.159178V95.3894C0.159178 97.5555 1.91471 99.3111 4.08085 99.3111H126.238C128.404 99.3111 130.159 97.5555 130.159 95.3894V13.9627C130.159 11.7965 128.404 10.041 126.238 10.041Z" fill="#00A2FF"/>
<path d="M116.766 85.3591H13.5528C12.1503 85.3591 11.0137 84.2224 11.0137 82.82V23.1172C11.0137 21.7148 12.1503 20.5781 13.5528 20.5781H116.765C118.167 20.5781 119.304 21.7148 119.304 23.1172V82.82C119.305 84.2224 118.167 85.3591 116.766 85.3591Z" fill="#D2FFFF"/>
<path d="M116.536 20.5781H102.068V71.7274C102.068 73.2568 100.828 74.4966 99.2999 74.4966H11.0137V82.5899C11.0137 84.1193 12.2535 85.3591 13.7829 85.3591H116.536C118.064 85.3591 119.304 84.1193 119.304 82.5899V23.3473C119.305 21.8179 118.065 20.5781 116.536 20.5781Z" fill="#9AF1FF"/>
<g clip-path="url(#clip1)">
<path d="M88.7006 49.8681H86.0112C85.4804 47.5844 84.5823 45.4431 83.3775 43.5094L85.2794 41.6075C85.9477 40.9392 85.9477 39.8546 85.2794 39.1864L80.9015 34.8085C80.2333 34.1402 79.1487 34.1402 78.4804 34.8085L76.5785 36.7104C74.6458 35.5066 72.5044 34.6085 70.2208 34.0777V31.3883C70.2208 30.4421 69.4544 29.6758 68.5083 29.6758H62.3169C61.3717 29.6758 60.6054 30.4421 60.6054 31.3883V34.0777C58.3217 34.6085 56.1804 35.5066 54.2467 36.7114L52.3458 34.8094C51.6775 34.1412 50.5929 34.1412 49.9246 34.8094L45.5467 39.1873C44.8785 39.8556 44.8785 40.9402 45.5467 41.6085L47.4487 43.5104C46.2439 45.4431 45.3458 47.5844 44.815 49.8681H42.1256C41.1794 49.8681 40.4131 50.6344 40.4131 51.5806V57.7719C40.4131 58.7171 41.1794 59.4835 42.1256 59.4835H44.815C45.3458 61.7671 46.2439 63.9085 47.4487 65.8421L45.5467 67.7431C44.8785 68.4123 44.8785 69.496 45.5467 70.1642L49.9246 74.5421C50.5929 75.2104 51.6775 75.2104 52.3458 74.5421L54.2477 72.6402C56.1814 73.844 58.3227 74.7431 60.6064 75.2739V77.9633C60.6054 78.9094 61.3717 79.6758 62.3179 79.6758H68.5092C69.4544 79.6758 70.2208 78.9094 70.2208 77.9633V75.2739C72.5044 74.7431 74.6458 73.845 76.5794 72.6402L78.4814 74.5421C79.1496 75.2104 80.2342 75.2104 80.9025 74.5421L85.2804 70.1642C85.9487 69.496 85.9487 68.4114 85.2804 67.7431L83.3785 65.8412C84.5823 63.9085 85.4804 61.7662 86.0121 59.4825H88.7015C89.6467 59.4835 90.4131 58.7171 90.4131 57.771V51.5796C90.4131 50.6344 89.6467 49.8681 88.7006 49.8681ZM65.4131 63.3296C60.6333 63.3296 56.7592 59.4546 56.7592 54.6758C56.7592 49.896 60.6333 46.0219 65.4131 46.0219C70.1929 46.0219 74.0669 49.896 74.0669 54.6758C74.0669 59.4546 70.1929 63.3296 65.4131 63.3296Z" fill="#C2C2C4"/>
<path d="M65.4131 42.1758C58.5092 42.1758 52.9131 47.7719 52.9131 54.6758C52.9131 61.5796 58.5092 67.1758 65.4131 67.1758C72.3169 67.1758 77.9131 61.5796 77.9131 54.6758C77.9131 47.7719 72.3169 42.1758 65.4131 42.1758ZM65.4131 63.3296C60.6333 63.3296 56.7592 59.4546 56.7592 54.6758C56.7592 49.896 60.6333 46.0219 65.4131 46.0219C70.1929 46.0219 74.0669 49.896 74.0669 54.6758C74.0669 59.4546 70.1929 63.3296 65.4131 63.3296Z" fill="#D6D6D8"/>
</g>
</g>
<defs>
<clipPath id="clip0">
<rect width="130" height="130" fill="white" transform="translate(0.413086 0.392578)"/>
</clipPath>
<clipPath id="clip1">
<rect width="50" height="50" fill="white" transform="translate(40.4131 29.6758)"/>
</clipPath>
</defs>
</svg>
