<svg width="131" height="131" viewBox="0 0 131 131" fill="none" xmlns="http://www.w3.org/2000/svg">
<g clip-path="url(#clip0)">
<path d="M65.9505 0.6875V9.65302L79.3988 5.17026L65.9505 0.6875Z" fill="#FF6243"/>
<path d="M39.054 27.584H92.8471V130.687H39.054V27.584Z" fill="#3D9AE2"/>
<path d="M92.847 63.4463H130.95V130.688H92.847V63.4463Z" fill="#5AAAE7"/>
<path d="M99.5712 76.8945H108.537V85.86H99.5712V76.8945Z" fill="#BDDBFF"/>
<path d="M115.261 76.8945H124.226V85.86H115.261V76.8945Z" fill="#BDDBFF"/>
<path d="M45.7781 41.0322H54.7436V49.9977H45.7781V41.0322Z" fill="#BDDBFF"/>
<path d="M61.4677 41.0322H70.4332V49.9977H61.4677V41.0322Z" fill="#BDDBFF"/>
<path d="M77.1574 41.0322H86.1229V49.9977H77.1574V41.0322Z" fill="#BDDBFF"/>
<path d="M45.7781 58.9629H54.7436V67.9284H45.7781V58.9629Z" fill="#BDDBFF"/>
<path d="M61.4677 58.9629H70.4332V67.9284H61.4677V58.9629Z" fill="#BDDBFF"/>
<path d="M77.1574 58.9629H86.1229V67.9284H77.1574V58.9629Z" fill="#BDDBFF"/>
<path d="M45.7781 76.8945H54.7436V85.86H45.7781V76.8945Z" fill="#BDDBFF"/>
<path d="M61.4677 76.8945H70.4332V85.86H61.4677V76.8945Z" fill="#BDDBFF"/>
<path d="M77.1574 76.8945H86.1229V85.86H77.1574V76.8945Z" fill="#BDDBFF"/>
<path d="M99.5712 92.584H108.537V101.55H99.5712V92.584Z" fill="#BDDBFF"/>
<path d="M115.261 92.584H124.226V101.55H115.261V92.584Z" fill="#BDDBFF"/>
<path d="M0.9505 63.4463H39.054V130.688H0.9505V63.4463Z" fill="#5AAAE7"/>
<path d="M23.3643 76.8945H32.3298V85.86H23.3643V76.8945Z" fill="#BDDBFF"/>
<path d="M7.67465 76.8945H16.6402V85.86H7.67465V76.8945Z" fill="#BDDBFF"/>
<path d="M23.3643 92.584H32.3298V101.55H23.3643V92.584Z" fill="#BDDBFF"/>
<path d="M7.67465 92.584H16.6402V101.55H7.67465V92.584Z" fill="#BDDBFF"/>
<path d="M52.5022 99.3086H65.9505V130.688H52.5022V99.3086Z" fill="#E6E7E8"/>
<path d="M65.9505 99.3086H79.3988V130.688H65.9505V99.3086Z" fill="#D1D3D4"/>
<path d="M39.054 27.584H92.8471V32.0667H39.054V27.584Z" fill="#378BCC"/>
<path d="M63.7091 0.6875H68.1919V18.6185H63.7091V0.6875Z" fill="#FF9811"/>
<path d="M97.3298 27.5837V18.6182H34.5712V27.5837H97.3298Z" fill="#1E81CE"/>
</g>
<defs>
<clipPath id="clip0">
<rect width="130" height="130" fill="white" transform="translate(0.9505 0.6875)"/>
</clipPath>
</defs>
</svg>
