<svg width="72" height="73" viewBox="0 0 72 73" fill="none" xmlns="http://www.w3.org/2000/svg">
<g clip-path="url(#clip0)">
<path d="M70.6554 20.687C65.799 20.687 61.8621 16.7507 61.8615 11.8943V11.8694C57.4742 13.1156 52.8651 10.785 51.2685 6.51293C50.3217 6.85419 49.3234 7.02997 48.3166 7.03179C44.1463 7.03421 40.5477 4.10837 39.6991 0.0253906C28.6588 4.41507 22.6071 16.3312 25.5754 27.8352C28.5436 39.3392 39.6045 46.8396 51.3903 45.34C63.1762 43.841 72.0071 33.8093 71.9998 21.9283C71.9998 21.4749 71.9574 21.0319 71.9313 20.5839C71.5094 20.65 71.0827 20.6839 70.6554 20.687Z" fill="#F9BB4B"/>
<path d="M47.1724 48.4387C47.1724 61.4654 36.6128 72.025 23.5862 72.025C10.5596 72.025 0 61.4654 0 48.4387C0 35.4121 10.5596 24.8525 23.5862 24.8525C36.6128 24.8525 47.1724 35.4121 47.1724 48.4387Z" fill="#D3843D"/>
<path d="M23.5861 47.1976C23.5861 48.5687 22.4744 49.6804 21.1034 49.6804C19.7323 49.6804 18.6206 48.5687 18.6206 47.1976C18.6206 45.8265 19.7323 44.7148 21.1034 44.7148C22.4744 44.7148 23.5861 45.8265 23.5861 47.1976Z" fill="#8B3123"/>
<path d="M33.5173 55.8871C33.5173 57.2581 32.4056 58.3698 31.0345 58.3698C29.6634 58.3698 28.5518 57.2581 28.5518 55.8871C28.5518 54.516 29.6634 53.4043 31.0345 53.4043C32.4056 53.4043 33.5173 54.516 33.5173 55.8871Z" fill="#8B3123"/>
<path d="M16.1379 60.8529C16.1379 62.224 15.0262 63.3356 13.6551 63.3356C12.284 63.3356 11.1724 62.224 11.1724 60.8529C11.1724 59.4818 12.284 58.3701 13.6551 58.3701C15.0262 58.3701 16.1379 59.4818 16.1379 60.8529Z" fill="#8B3123"/>
<path d="M32.2761 37.2669C32.2761 38.638 31.1644 39.7497 29.7933 39.7497C28.4222 39.7497 27.3105 38.638 27.3105 37.2669C27.3105 35.8958 28.4222 34.7842 29.7933 34.7842C31.1644 34.7842 32.2761 35.8958 32.2761 37.2669Z" fill="#8B3123"/>
<path d="M14.8967 38.5081C14.8967 39.8792 13.785 40.9909 12.4139 40.9909C11.0428 40.9909 9.93115 39.8792 9.93115 38.5081C9.93115 37.1371 11.0428 36.0254 12.4139 36.0254C13.785 36.0254 14.8967 37.1371 14.8967 38.5081Z" fill="#8B3123"/>
<path d="M6.56982 49.3159L8.32582 47.5605L10.808 50.0433L9.05258 51.7987L6.56982 49.3159Z" fill="#F9BB4B"/>
<path d="M18.9849 56.2513L21.467 53.7686L23.2224 55.5239L20.7402 58.0067L18.9849 56.2513Z" fill="#F9BB4B"/>
<path d="M60.8278 24.4105C60.8278 25.7816 59.7161 26.8933 58.3451 26.8933C56.974 26.8933 55.8623 25.7816 55.8623 24.4105C55.8623 23.0394 56.974 21.9277 58.3451 21.9277C59.7161 21.9277 60.8278 23.0394 60.8278 24.4105Z" fill="#8B3123"/>
<path d="M55.862 35.5833C55.862 36.9544 54.7503 38.0661 53.3792 38.0661C52.0082 38.0661 50.8965 36.9544 50.8965 35.5833C50.8965 34.2123 52.0082 33.1006 53.3792 33.1006C54.7503 33.1006 55.862 34.2123 55.862 35.5833Z" fill="#8B3123"/>
<path d="M48.4138 18.2044C48.4138 19.5755 47.3021 20.6872 45.931 20.6872C44.5599 20.6872 43.4482 19.5755 43.4482 18.2044C43.4482 16.8333 44.5599 15.7217 45.931 15.7217C47.3021 15.7217 48.4138 16.8333 48.4138 18.2044Z" fill="#8B3123"/>
<path d="M37.2414 16.9632C37.2414 18.3343 36.1298 19.446 34.7586 19.446C33.3875 19.446 32.2759 18.3343 32.2759 16.9632C32.2759 15.5921 33.3875 14.4805 34.7586 14.4805C36.1298 14.4805 37.2414 15.5921 37.2414 16.9632Z" fill="#8B3123"/>
<path d="M43.8115 26.5304L45.5669 24.7744L48.0491 27.2572L46.2937 29.0126L43.8115 26.5304Z" fill="#D3843D"/>
<path d="M59.9512 32.2234L62.4333 29.7412L64.1887 31.4966L61.7066 33.9794L59.9512 32.2234Z" fill="#D3843D"/>
<path d="M28.916 46.8355L30.6714 45.0801L33.1542 47.5622L31.3982 49.3182L28.916 46.8355Z" fill="#F9BB4B"/>
<path d="M18.9849 33.9066L21.467 31.4238L23.223 33.1798L20.7402 35.662L18.9849 33.9066Z" fill="#F9BB4B"/>
<path d="M23.9507 64.2144L25.7061 62.459L28.1888 64.9411L26.4328 66.6965L23.9507 64.2144Z" fill="#F9BB4B"/>
<path d="M38.8462 43.8376L41.3284 41.3555L43.0844 43.1109L40.6016 45.593L38.8462 43.8376Z" fill="#F9BB4B"/>
<path d="M37.6045 51.8009L39.3605 50.0449L41.8427 52.5277L40.0873 54.2831L37.6045 51.8009Z" fill="#F9BB4B"/>
<path d="M38.8467 11.1198L41.3295 8.6377L43.0849 10.3931L40.6027 12.8758L38.8467 11.1198Z" fill="#D3843D"/>
<path d="M51.2612 18.5681L53.7434 16.0859L55.4994 17.8413L53.0166 20.3241L51.2612 18.5681Z" fill="#D3843D"/>
</g>
<defs>
<clipPath id="clip0">
<rect width="72" height="72" fill="white" transform="translate(0 0.0253906)"/>
</clipPath>
</defs>
</svg>
