<svg width="80" height="81" viewBox="0 0 80 81" fill="none" xmlns="http://www.w3.org/2000/svg">
<path d="M38 2.0883C39.2376 1.37376 40.7624 1.37376 42 2.08829L72.641 19.7789C73.8786 20.4934 74.641 21.8139 74.641 23.243V58.6242C74.641 60.0533 73.8786 61.3738 72.641 62.0883L42 79.7789C40.7624 80.4934 39.2376 80.4934 38 79.7789L7.35898 62.0883C6.12138 61.3738 5.35898 60.0533 5.35898 58.6242V23.243C5.35898 21.8139 6.12138 20.4934 7.35898 19.7789L38 2.0883Z" fill="#4895FF"/>
<path d="M39.7226 65.5504C35.1761 65.5504 31.0544 64.5077 27.3577 62.4224C23.7035 60.2917 20.8141 57.3677 18.6895 53.6504C16.6074 49.8877 15.5664 45.649 15.5664 40.9344C15.5664 36.2197 16.6074 32.0037 18.6895 28.2864C20.8141 24.5237 23.7035 21.5997 27.3577 19.5144C31.0544 17.3837 35.1973 16.3184 39.7864 16.3184C43.6531 16.3184 47.1374 17.0437 50.2392 18.4944C53.3836 19.945 56.018 22.0304 58.1426 24.7504L51.514 31.2784C48.4971 27.561 44.7579 25.7024 40.2963 25.7024C37.5344 25.7024 35.0699 26.3597 32.9028 27.6744C30.7358 28.9437 29.0361 30.7344 27.8039 33.0464C26.6141 35.3584 26.0192 37.9877 26.0192 40.9344C26.0192 43.881 26.6141 46.5104 27.8039 48.8224C29.0361 51.1344 30.7358 52.9477 32.9028 54.2624C35.0699 55.5317 37.5344 56.1664 40.2963 56.1664C44.7579 56.1664 48.4971 54.285 51.514 50.5224L58.1426 57.0504C56.018 59.8157 53.3836 61.9237 50.2392 63.3744C47.0949 64.825 43.5893 65.5504 39.7226 65.5504Z" fill="white"/>
<path d="M59.9165 42.1426H56.4715V45.5084H53.9174V42.1426H50.4922V39.7271H53.9174V36.3613H56.4715V39.7271H59.9165V42.1426Z" fill="white"/>
<path d="M71.8848 42.1426H68.4398V45.5084H65.8857V42.1426H62.4605V39.7271H65.8857V36.3613H68.4398V39.7271H71.8848V42.1426Z" fill="white"/>
</svg>
