<svg width="81" height="81" viewBox="0 0 81 81" fill="none" xmlns="http://www.w3.org/2000/svg">
<path d="M38.0762 2.0883C39.3138 1.37376 40.8386 1.37376 42.0762 2.08829L72.7172 19.7789C73.9548 20.4934 74.7172 21.8139 74.7172 23.243V58.6242C74.7172 60.0533 73.9548 61.3738 72.7172 62.0883L42.0762 79.7789C40.8386 80.4934 39.3138 80.4934 38.0762 79.7789L7.43516 62.0883C6.19755 61.3738 5.43515 60.0533 5.43515 58.6242V23.243C5.43515 21.8139 6.19755 20.4934 7.43515 19.7789L38.0762 2.0883Z" fill="#68217A"/>
<path d="M39.9453 65.5484C35.3987 65.5484 31.2771 64.5057 27.5804 62.4204C23.9261 60.2897 21.0367 57.3657 18.9122 53.6484C16.8301 49.8857 15.7891 45.6471 15.7891 40.9324C15.7891 36.2177 16.8301 32.0017 18.9122 28.2844C21.0367 24.5217 23.9261 21.5977 27.5804 19.5124C31.2771 17.3817 35.42 16.3164 40.009 16.3164C43.8757 16.3164 47.36 17.0417 50.4619 18.4924C53.6062 19.9431 56.2407 22.0284 58.3652 24.7484L51.7366 31.2764C48.7197 27.5591 44.9805 25.7004 40.5189 25.7004C37.757 25.7004 35.2925 26.3577 33.1255 27.6724C30.9584 28.9417 29.2588 30.7324 28.0265 33.0444C26.8368 35.3564 26.2419 37.9857 26.2419 40.9324C26.2419 43.8791 26.8368 46.5084 28.0265 48.8204C29.2588 51.1324 30.9584 52.9457 33.1255 54.2604C35.2925 55.5297 37.757 56.1644 40.5189 56.1644C44.9805 56.1644 48.7197 54.2831 51.7366 50.5204L58.3652 57.0484C56.2407 59.8137 53.6062 61.9217 50.4619 63.3724C47.3175 64.8231 43.812 65.5484 39.9453 65.5484Z" fill="white"/>
<path d="M67.8975 42.5287H70.457V44.6747H67.6415L67.2478 47.8248H65.023L65.4167 44.6747H62.5226L62.1288 47.8248H59.9237L60.3175 44.6747H57.7383V42.5287H60.5734L60.9869 39.3391H58.4077V37.1931H61.2428L61.6366 34.043H63.8417L63.4479 37.1931H66.3421L66.7359 34.043H68.941L68.5472 37.1931H71.1067L71.1264 39.3391H68.2912L67.8975 42.5287ZM65.6727 42.5287L66.0861 39.3391H63.192L62.7785 42.5287H65.6727Z" fill="white"/>
</svg>
