<svg width="131" height="131" viewBox="0 0 131 131" fill="none" xmlns="http://www.w3.org/2000/svg">
<g clip-path="url(#clip0)">
<path d="M59.3193 65.3926H6.50684C3.14159 65.3926 0.413086 62.6641 0.413086 59.2988V6.48633C0.413086 3.12108 3.14159 0.392578 6.50684 0.392578H59.3193C62.6846 0.392578 65.4131 3.12108 65.4131 6.48633V59.2988C65.4131 62.6641 62.6846 65.3926 59.3193 65.3926Z" fill="#FAD200"/>
<path d="M58.9553 0.392578H53.8812C53.9367 0.732773 53.9675 1.08189 53.9675 1.43796V53.5235C53.9675 57.09 51.0763 59.9802 47.5097 59.9802H0.498383C0.99826 63.0499 3.66031 65.3926 6.87083 65.3926H58.9553C62.5219 65.3926 65.4131 62.5014 65.4131 58.9348V6.85033C65.4131 3.28374 62.5219 0.392578 58.9553 0.392578Z" fill="#FAB700"/>
<path d="M47.4442 49.9627H18.3819C16.9795 49.9627 15.8428 48.8261 15.8428 47.4237V18.3613C15.8428 16.9589 16.9795 15.8223 18.3819 15.8223H47.4442C48.8467 15.8223 49.9833 16.9589 49.9833 18.3613V47.4237C49.9833 48.8261 48.8467 49.9627 47.4442 49.9627Z" fill="#FF6914"/>
<path d="M47.2925 15.8223H40.2873C41.773 15.8223 42.9781 17.0273 42.9781 18.5131V47.2719C42.9781 48.7577 41.773 49.9627 40.2873 49.9627H47.2925C48.7783 49.9627 49.9833 48.7577 49.9833 47.2719V18.5131C49.9833 17.0273 48.7783 15.8223 47.2925 15.8223Z" fill="#ED500A"/>
<path d="M91.862 97.8926H39.0495C35.6842 97.8926 32.9557 95.1641 32.9557 91.7988V38.9863C32.9557 35.6211 35.6842 32.8926 39.0495 32.8926H91.862C95.2272 32.8926 97.9557 35.6211 97.9557 38.9863V91.7988C97.9557 95.1641 95.2272 97.8926 91.862 97.8926Z" fill="#005CA0"/>
<path d="M91.498 32.8926H86.5101V86.0235C86.5101 89.59 83.619 92.4802 80.0524 92.4802H33.042C33.5409 95.5499 36.203 97.8926 39.4135 97.8926H91.498C95.0646 97.8926 97.9557 95.0014 97.9557 91.4348V39.3503C97.9557 35.7837 95.0646 32.8926 91.498 32.8926Z" fill="#005182"/>
<path d="M124.98 42.0568C124.004 41.5847 122.831 41.9933 122.36 42.9693L121.151 45.4697C114.751 27.727 100.038 13.8226 81.7415 8.5858C80.7 8.28825 79.614 8.89029 79.3155 9.93269C79.0169 10.9741 79.6199 12.0601 80.6624 12.3587C97.8437 17.2761 111.637 30.384 117.556 47.0883L114.615 45.668C113.64 45.1959 112.467 45.6045 111.995 46.5805C111.524 47.5564 111.932 48.7298 112.908 49.2009L119.896 52.577C120.073 52.6633 120.258 52.7169 120.443 52.7466H120.446C120.546 52.7625 120.648 52.7734 120.749 52.7734C120.752 52.7734 120.755 52.7724 120.758 52.7724C120.761 52.7724 120.764 52.7734 120.767 52.7734C120.932 52.7734 121.102 52.7516 121.27 52.707C121.931 52.5324 122.423 52.0395 122.626 51.4374L125.892 44.6762C126.364 43.7012 125.955 42.5279 124.98 42.0568Z" fill="#0882BF"/>
<path d="M50.3662 118.556C32.9666 113.747 18.972 100.581 12.9914 83.7067L16.1543 85.242C17.1292 85.7151 18.3036 85.3085 18.7767 84.3335C19.2498 83.3596 18.8431 82.1852 17.8682 81.7121L10.8867 78.3231C10.1131 77.9472 9.21451 78.1277 8.64025 78.7049C8.24649 79.0144 7.98565 79.4647 7.91126 79.9586L4.87529 86.212C4.4022 87.187 4.80884 88.3613 5.7838 88.8344C6.05953 88.9683 6.35212 89.0318 6.63974 89.0318C7.36774 89.0318 8.06697 88.6251 8.40618 87.9259L9.51404 85.6437C16.0422 103.415 30.9027 117.248 49.3208 122.338C49.5003 122.389 49.6818 122.412 49.8603 122.41C50.7143 122.403 51.4959 121.834 51.7349 120.97C52.0235 119.926 51.4106 118.845 50.3662 118.556Z" fill="#0882BF"/>
<path d="M83.5099 65.3927C83.5099 75.3873 75.4077 83.4894 65.4131 83.4894C55.4185 83.4894 47.3163 75.3873 47.3163 65.3927C47.3163 55.3981 55.4185 47.2959 65.4131 47.2959C75.4077 47.2959 83.5099 55.3981 83.5099 65.3927Z" fill="#FAD200"/>
<path d="M65.4131 47.2959C64.2635 47.2959 63.1398 47.407 62.0498 47.6123C70.4366 49.1893 76.7833 56.5476 76.7833 65.3927C76.7833 74.2377 70.4366 81.5951 62.0498 83.1721C63.1398 83.3774 64.2635 83.4894 65.4131 83.4894C75.4077 83.4894 83.5098 75.3873 83.5098 65.3917C83.5098 55.3971 75.4077 47.2959 65.4131 47.2959Z" fill="#FAB700"/>
<path d="M124.319 130.393H71.5068C68.1416 130.393 65.4131 127.664 65.4131 124.299V71.4863C65.4131 68.1211 68.1416 65.3926 71.5068 65.3926H124.319C127.685 65.3926 130.413 68.1211 130.413 71.4863V124.299C130.413 127.664 127.685 130.393 124.319 130.393Z" fill="#FF6914"/>
<path d="M123.955 65.3926H118.881C118.937 65.7328 118.967 66.0819 118.967 66.438V118.523C118.967 122.09 116.076 124.98 112.51 124.98H65.4994C65.9983 128.05 68.6603 130.393 71.8708 130.393H123.955C127.522 130.393 130.413 127.501 130.413 123.935V71.8503C130.413 68.2837 127.522 65.3926 123.955 65.3926Z" fill="#ED500A"/>
<path d="M95.9552 121.703L73.9408 99.6876C72.9489 98.6958 72.9489 97.089 73.9408 96.0972L95.9552 74.0818C96.9471 73.0899 98.5548 73.0899 99.5466 74.0818L121.561 96.0972C122.553 97.089 122.553 98.6958 121.561 99.6876L99.5466 121.703C98.5548 122.695 96.9471 122.695 95.9552 121.703Z" fill="#005CA0"/>
<path d="M121.454 95.9903L99.6537 74.1891C98.6024 73.1388 96.8994 73.1388 95.8481 74.1891L93.5074 76.5298L112.968 95.9903C114.019 97.0407 114.019 98.7446 112.968 99.795L93.5074 119.255L95.8481 121.596C96.8994 122.647 98.6024 122.647 99.6537 121.596L121.454 99.795C122.505 98.7446 122.505 97.0407 121.454 95.9903Z" fill="#005182"/>
</g>
<defs>
<clipPath id="clip0">
<rect width="130" height="130" fill="white" transform="translate(0.413086 0.392578)"/>
</clipPath>
</defs>
</svg>
