<svg width="131" height="131" viewBox="0 0 131 131" fill="none" xmlns="http://www.w3.org/2000/svg">
<g clip-path="url(#clip0)">
<path d="M130.753 115.734H17.438V86.8398C17.438 69.0664 31.8462 54.6582 49.6197 54.6582H98.572C116.345 54.6582 130.753 69.0664 130.753 86.8398V115.734Z" fill="#D2FFFF"/>
<path d="M98.1136 54.6592H82.9149C100.94 54.6592 115.553 69.2717 115.553 87.298V115.734H130.752V87.298C130.752 69.2717 116.14 54.6592 98.1136 54.6592V54.6592Z" fill="#9AF1FF"/>
<path d="M107.223 126.242H40.968C39.5655 126.242 38.4289 125.105 38.4289 123.703V86.5977C38.4289 85.1952 39.5655 84.0586 40.968 84.0586H107.223C108.625 84.0586 109.762 85.1952 109.762 86.5977V123.703C109.762 125.105 108.625 126.242 107.223 126.242V126.242Z" fill="#1DC2FF"/>
<path d="M107.186 84.0586H97.9362V118.516C97.9362 119.939 96.7837 121.091 95.3614 121.091H38.4289V123.666C38.4289 125.089 39.5824 126.242 41.0047 126.242H107.186C108.608 126.242 109.762 125.088 109.762 123.666V86.6344C109.762 85.2111 108.608 84.0586 107.186 84.0586V84.0586Z" fill="#00A2FF"/>
<path d="M100.759 39.8514C100.759 36.3532 98.8586 33.4819 96.4306 33.1635V24.0665C96.4306 13.826 88.1291 5.52344 77.8875 5.52344H67.8185C57.577 5.52344 49.2754 13.826 49.2754 24.0665V33.1635C46.8485 33.4819 44.9471 36.3532 44.9471 39.8514C44.9471 43.4199 46.9258 46.3369 49.4242 46.5541C50.1235 52.1549 53.3171 56.9771 57.8616 59.8762C58.1919 64.9811 62.4349 69.0208 67.6241 69.0208H78.0819C83.2711 69.0208 87.5141 64.9811 87.8444 59.8762C92.3889 56.9771 95.5866 52.1549 96.2858 46.5541C98.7822 46.3339 100.759 43.418 100.759 39.8514Z" fill="#F7C6BA"/>
<path d="M72.8877 53.342C77.8736 53.342 81.9143 49.3013 81.9143 44.3164H63.8621C63.8621 49.3013 67.9028 53.342 72.8877 53.342V53.342Z" fill="white"/>
<path d="M29.9201 96.54H12.1636C10.781 96.54 9.6612 97.6598 9.6612 99.0424V102.389H9.49358C4.67333 102.388 0.752659 106.309 0.752659 111.13V111.62C0.752659 116.44 4.67333 120.361 9.49358 120.361H9.6612V123.751C9.6612 125.133 10.781 126.254 12.1636 126.254H29.9201C31.3027 126.254 32.4225 125.133 32.4225 123.751V99.0424C32.4225 97.6608 31.3027 96.54 29.9201 96.54ZM9.49358 116.607C6.74326 116.607 4.5067 114.369 4.5067 111.62V111.129C4.5067 108.378 6.74326 106.142 9.49358 106.142H9.6612V116.607H9.49358Z" fill="#FF6914"/>
<path d="M100.759 39.8516C100.759 36.3535 98.8586 33.4821 96.4306 33.1638V24.0658C96.4306 16.1888 91.5161 9.46321 84.5882 6.77637C88.2282 10.1624 90.5074 14.9906 90.5074 20.3534V40.5271C90.5074 50.7676 82.2069 59.0682 71.9663 59.0682H61.8934C59.5299 59.0682 57.2725 58.6218 55.1946 57.8155C58.5043 60.8941 62.9398 62.7805 67.8165 62.7805H77.8895C78.0383 62.7805 78.186 62.7726 78.3338 62.7686C76.5456 66.3491 72.9115 68.8455 68.6774 69.0102C68.8262 69.0161 68.974 69.0211 69.1228 69.0211H78.0819C83.2701 69.0211 87.5131 64.9824 87.8444 59.8775C92.3889 56.9784 95.5836 52.1562 96.2818 46.5544C98.7792 46.3371 100.759 43.4202 100.759 39.8516Z" fill="#F4ADA5"/>
<path d="M70.4945 18.3874H75.2116C84.5446 18.3874 92.6101 23.8116 96.4306 31.6788V24.0645C96.4306 13.825 88.129 5.52344 77.8895 5.52344H67.8165C57.576 5.52344 49.2754 13.825 49.2754 24.0645V31.6788C53.0959 23.8116 61.1604 18.3874 70.4945 18.3874Z" fill="#005CA0"/>
<path d="M96.3462 22.3271C95.881 17.3254 93.339 12.6569 89.3975 9.53363C89.3707 9.51181 89.3439 9.49098 89.3162 9.46916C88.6179 8.92168 87.879 8.42279 87.1044 7.97845C87.0935 7.9725 87.0826 7.96556 87.0717 7.95961C86.2792 7.50734 85.45 7.11061 84.5901 6.77736C84.5891 6.77736 84.5891 6.77637 84.5882 6.77637C88.2281 10.1624 90.5073 14.9906 90.5073 20.3534V24.0251C92.973 26.1298 94.9993 28.7333 96.4305 31.679V24.0648C96.4305 23.4886 96.3997 22.9024 96.3462 22.3271V22.3271Z" fill="#005182"/>
<path d="M29.8477 96.54H26.7572V120.165C26.7572 121.587 25.6047 122.74 24.1824 122.74H9.66117V123.678C9.66117 125.101 10.8137 126.253 12.2359 126.253H29.8477C31.269 126.253 32.4225 125.101 32.4225 123.678V99.1148C32.4225 97.6925 31.27 96.54 29.8477 96.54Z" fill="#ED500A"/>
<path d="M65.1109 34.8177C65.1109 36.724 63.5657 38.2693 61.6594 38.2693C59.7531 38.2693 58.2079 36.724 58.2079 34.8177C58.2079 32.9124 59.7531 31.3672 61.6594 31.3672C63.5657 31.3672 65.1109 32.9124 65.1109 34.8177Z" fill="#005182"/>
<path d="M86.688 34.8177C86.688 36.724 85.1428 38.2693 83.2365 38.2693C81.3302 38.2693 79.7849 36.724 79.7849 34.8177C79.7849 32.9124 81.3302 31.3672 83.2365 31.3672C85.1428 31.3672 86.688 32.9124 86.688 34.8177Z" fill="#005182"/>
</g>
<defs>
<clipPath id="clip0">
<rect width="130" height="130" fill="white" transform="translate(0.752655 0.953125)"/>
</clipPath>
</defs>
</svg>
