<svg width="131" height="131" viewBox="0 0 131 131" fill="none" xmlns="http://www.w3.org/2000/svg">
<g clip-path="url(#clip0)">
<path d="M100.428 34.2949C89.2531 34.2949 79.8298 35.5932 76.9089 50.4785H53.1042C50.1833 35.5932 40.76 34.2949 29.5852 34.2949C16.0795 34.2949 5.13082 36.1903 5.13082 61.6771C5.13082 87.163 16.0795 119.608 29.5852 119.608C39.6948 119.608 48.3703 101.429 52.0955 81.5969H77.9186C81.6429 101.429 90.3193 119.608 100.428 119.608C113.934 119.608 124.882 87.163 124.882 61.6771C124.882 36.1903 113.934 34.2949 100.428 34.2949Z" fill="#FF6914"/>
<path d="M77.8779 81.5969C77.3046 78.547 76.8494 75.4575 76.5241 72.3888C76.4557 71.7411 75.9131 71.2482 75.2625 71.2482H53.5644C53.8749 68.002 54.0395 64.7875 54.0395 61.6771C54.0395 36.1903 43.0908 34.2949 29.5852 34.2949C27.6997 34.2949 25.8648 34.3316 24.1014 34.4645C34.9668 35.2838 43.0719 39.7489 43.0719 61.6771C43.0719 83.6053 34.9668 110.684 24.1014 117.818C25.8648 118.976 27.6997 119.608 29.5852 119.608C39.6948 119.608 48.3702 101.429 52.0955 81.5969H77.8779Z" fill="#ED500A"/>
<path d="M100.428 34.2949C98.5425 34.2949 96.7076 34.3316 94.9441 34.4645C105.81 35.2838 113.915 39.7489 113.915 61.6771C113.915 83.6053 105.81 110.684 94.9441 117.818C96.7076 118.976 98.5425 119.608 100.428 119.608C113.934 119.608 124.882 87.163 124.882 61.6771C124.882 36.1913 113.934 34.2949 100.428 34.2949Z" fill="#ED500A"/>
<path d="M105.168 57.8405C105.168 60.4589 103.046 62.5804 100.428 62.5804C97.8106 62.5804 95.6881 60.4589 95.6881 57.8405C95.6881 55.2231 97.8106 53.1006 100.428 53.1006C103.046 53.1006 105.168 55.2231 105.168 57.8405Z" fill="#1DC2FF"/>
<path d="M105.168 79.6091C105.168 82.2265 103.046 84.349 100.428 84.349C97.8106 84.349 95.6881 82.2265 95.6881 79.6091C95.6881 76.9906 97.8106 74.8691 100.428 74.8691C103.046 74.8691 105.168 76.9906 105.168 79.6091Z" fill="#1DC2FF"/>
<path d="M116.052 68.7243C116.052 71.3417 113.93 73.4642 111.312 73.4642C108.695 73.4642 106.572 71.3417 106.572 68.7243C106.572 66.1069 108.695 63.9844 111.312 63.9844C113.93 63.9844 116.052 66.1069 116.052 68.7243Z" fill="#1DC2FF"/>
<path d="M94.2837 68.7243C94.2837 71.3417 92.1621 73.4642 89.5437 73.4642C86.9263 73.4642 84.8038 71.3417 84.8038 68.7243C84.8038 66.1069 86.9263 63.9844 89.5437 63.9844C92.1621 63.9844 94.2837 66.1069 94.2837 68.7243Z" fill="#1DC2FF"/>
<path d="M100.428 53.1006C99.9498 53.1006 99.4886 53.173 99.0532 53.3049C100.999 53.895 102.417 55.7021 102.417 57.8405C102.417 59.9799 100.999 61.787 99.0532 62.3761C99.4886 62.508 99.9498 62.5804 100.428 62.5804C103.046 62.5804 105.168 60.4589 105.168 57.8405C105.168 55.2231 103.045 53.1006 100.428 53.1006Z" fill="#00A2FF"/>
<path d="M100.428 74.8691C99.9498 74.8691 99.4886 74.9415 99.0532 75.0735C100.999 75.6626 102.417 77.4697 102.417 79.6091C102.417 81.7484 100.999 83.5545 99.0532 84.1447C99.4886 84.2766 99.9498 84.349 100.428 84.349C103.046 84.349 105.168 82.2265 105.168 79.6091C105.168 76.9906 103.045 74.8691 100.428 74.8691Z" fill="#00A2FF"/>
<path d="M111.312 63.9844C110.833 63.9844 110.372 64.0568 109.936 64.1887C111.883 64.7788 113.301 66.5849 113.301 68.7243C113.301 70.8636 111.883 72.6707 109.936 73.2599C110.372 73.3918 110.833 73.4642 111.312 73.4642C113.93 73.4642 116.052 71.3417 116.052 68.7243C116.052 66.1069 113.93 63.9844 111.312 63.9844Z" fill="#00A2FF"/>
<path d="M89.5437 63.9844C89.0656 63.9844 88.6044 64.0568 88.169 64.1887C90.115 64.7788 91.5333 66.5849 91.5333 68.7243C91.5333 70.8636 90.115 72.6707 88.169 73.2599C88.6044 73.3918 89.0656 73.4642 89.5437 73.4642C92.1621 73.4642 94.2836 71.3417 94.2836 68.7243C94.2836 66.1069 92.1621 63.9844 89.5437 63.9844Z" fill="#00A2FF"/>
<path d="M29.5851 84.2527C27.3268 84.2527 25.4969 82.4218 25.4969 80.1644V57.1889C25.4969 54.9315 27.3268 53.1006 29.5851 53.1006C31.8435 53.1006 33.6734 54.9315 33.6734 57.1889V80.1644C33.6734 82.4218 31.8435 84.2527 29.5851 84.2527Z" fill="#FAD200"/>
<path d="M29.5851 53.1006C28.8393 53.1006 28.143 53.3039 27.541 53.652C28.7619 54.3592 29.5851 55.6763 29.5851 57.1889V80.1644C29.5851 81.6769 28.7619 82.9941 27.541 83.7012C28.143 84.0494 28.8393 84.2527 29.5851 84.2527C31.8435 84.2527 33.6734 82.4218 33.6734 80.1644V57.1889C33.6734 54.9315 31.8435 53.1006 29.5851 53.1006Z" fill="#FAB700"/>
<path d="M41.0724 72.7655H18.0979C15.8395 72.7655 14.0096 70.9346 14.0096 68.6762C14.0096 66.4188 15.8395 64.5879 18.0979 64.5879H41.0724C43.3298 64.5879 45.1607 66.4188 45.1607 68.6762C45.1607 70.9346 43.3298 72.7655 41.0724 72.7655Z" fill="#FAD200"/>
<path d="M41.0724 68.676H18.0979C16.5854 68.676 15.2682 67.8528 14.5611 66.6318C14.2119 67.2339 14.0096 67.9311 14.0096 68.676C14.0096 70.9344 15.8395 72.7653 18.0979 72.7653H41.0724C43.3298 72.7653 45.1607 70.9344 45.1607 68.676C45.1607 67.9311 44.9574 67.2339 44.6093 66.6318C43.9021 67.8528 42.585 68.676 41.0724 68.676Z" fill="#FAB700"/>
<path d="M100.431 24.1753C98.8063 24.1753 95.0404 25.6918 91.7098 27.1935V16.2229C91.7098 15.3432 90.9967 14.6291 90.117 14.6291H80.4606C81.9622 11.2985 83.4797 7.53258 83.4797 5.90797C83.4797 2.6915 80.8167 0.0830078 77.5307 0.0830078C74.2458 0.0830078 71.5828 2.6915 71.5828 5.90797C71.5828 7.53258 73.0993 11.2985 74.6009 14.6291H64.9455C64.0648 14.6291 63.3517 15.3432 63.3517 16.2229V23.2847C63.3517 24.3707 64.4129 25.1493 65.4444 24.8071C66.6177 24.4183 67.6125 24.1753 68.2632 24.1753C71.4806 24.1753 74.0891 26.8384 74.0891 30.1233C74.0891 33.4092 71.4806 36.0722 68.2632 36.0722C67.6125 36.0722 66.6177 35.8282 65.4444 35.4395C64.4129 35.0983 63.3517 35.8768 63.3517 36.9619V44.0237C63.3517 44.9044 64.0648 45.6175 64.9455 45.6175H74.591C73.0923 48.9421 71.5828 52.6952 71.5828 54.3168C71.5828 57.5333 74.2458 60.1418 77.5307 60.1418C80.8167 60.1418 83.4797 57.5333 83.4797 54.3168C83.4797 52.6952 81.9691 48.9431 80.4715 45.6175H90.117C90.9967 45.6175 91.7098 44.9044 91.7098 44.0237V33.0541C95.0404 34.5557 98.8063 36.0722 100.431 36.0722C103.648 36.0722 106.256 33.4092 106.256 30.1233C106.256 26.8384 103.648 24.1753 100.431 24.1753Z" fill="#F7C6BA"/>
<path d="M73.7549 123.197L69.0487 127.905C68.4536 128.499 67.4895 128.499 66.8945 127.905L54.2537 115.263L61.1151 108.402L73.7559 121.043C74.35 121.638 74.35 122.602 73.7549 123.197Z" fill="#9AF1FF"/>
<path d="M73.7549 123.197L71.4023 125.551L57.6834 111.832L61.1141 108.402L73.7549 121.043C74.35 121.638 74.35 122.602 73.7549 123.197Z" fill="#32E4FF"/>
<path d="M35.9407 92.1733L51.3566 129.104C51.8823 130.361 53.6408 130.422 54.2517 129.203L61.1955 115.345L75.0542 108.401C76.2722 107.791 76.2117 106.031 74.954 105.506L38.0246 90.0895C36.7104 89.541 35.3923 90.8591 35.9407 92.1733Z" fill="#9AF1FF"/>
<path d="M71.0552 110.404L75.0542 108.401C76.2721 107.791 76.2116 106.031 74.954 105.506L38.0245 90.0895C36.7104 89.541 35.3913 90.8591 35.9397 92.1733L37.7458 96.4986L71.0552 110.404Z" fill="#32E4FF"/>
<path d="M100.431 24.1748C99.9518 24.1748 99.2853 24.3067 98.4998 24.5319C100.735 25.363 102.332 27.552 102.332 30.1228C102.332 32.6936 100.735 34.8835 98.4998 35.7146C99.2853 35.9388 99.9518 36.0717 100.431 36.0717C103.648 36.0717 106.256 33.4087 106.256 30.1228C106.256 26.8378 103.648 24.1748 100.431 24.1748Z" fill="#F4ADA5"/>
<path d="M90.117 14.6289H85.7609V40.4391C85.7609 41.3188 85.0478 42.0319 84.168 42.0319H63.3527V44.0235C63.3527 44.9043 64.0658 45.6174 64.9455 45.6174H77.4326C78.9312 48.942 80.4408 52.695 80.4408 54.3166C80.4408 57.0193 78.5612 59.2916 76.0113 59.9492C76.4963 60.0742 77.0061 60.1416 77.5307 60.1416C80.8167 60.1416 83.4797 57.5331 83.4797 54.3166C83.4797 52.695 81.9691 48.9429 80.4715 45.6174H90.117C90.9967 45.6174 91.7098 44.9043 91.7098 44.0235V16.2228C91.7098 15.343 90.9967 14.6289 90.117 14.6289Z" fill="#F4ADA5"/>
<path d="M80.4407 5.90797C80.4407 7.53258 78.9233 11.2985 77.4216 14.6291H80.4606C81.9622 11.2985 83.4797 7.53258 83.4797 5.90797C83.4797 2.6915 80.8166 0.0830078 77.5307 0.0830078C77.0061 0.0830078 76.4963 0.150452 76.0113 0.275421C78.5602 0.932999 80.4407 3.20526 80.4407 5.90797Z" fill="#F4ADA5"/>
</g>
<defs>
<clipPath id="clip0">
<rect width="130" height="130" fill="white" transform="translate(0.0526428 0.0830078)"/>
</clipPath>
</defs>
</svg>
