<svg width="80" height="81" viewBox="0 0 80 81" fill="none" xmlns="http://www.w3.org/2000/svg">
<path d="M16.7378 70.361C13.4706 70.361 10.4565 69.6428 7.69548 68.2063C4.98048 66.7146 2.74865 64.6151 1 61.908L7.2123 52.9577C9.83528 57.2118 12.8264 59.3389 16.1856 59.3389C20.7413 59.3389 23.0192 56.1345 23.0192 49.7256V22.1289H6.03887V11.3555H34.1323V48.9798C34.1323 56.1069 32.6597 61.466 29.7146 65.0571C26.7696 68.593 22.444 70.361 16.7378 70.361Z" fill="#FFC107"/>
<path d="M58.4985 70.3613C54.6791 70.3613 50.9747 69.7536 47.3854 68.5381C43.8421 67.2674 40.989 65.6375 38.8262 63.6486L42.6226 53.5381C44.6934 55.3613 47.1553 56.8254 50.0083 57.9304C52.8614 59.0353 55.7145 59.5878 58.5675 59.5878C61.7427 59.5878 64.0896 59.0353 65.6081 57.9304C67.1267 56.7701 67.886 55.2508 67.886 53.3724C67.886 51.9911 67.4258 50.8585 66.5055 49.9746C65.6311 49.0353 64.4807 48.2895 63.0542 47.737C61.6737 47.1845 59.787 46.5768 57.3941 45.9138C53.7127 44.8641 50.6986 43.8143 48.3517 42.7646C46.0049 41.7149 43.9801 40.0298 42.2775 37.7094C40.6209 35.3889 39.7926 32.295 39.7926 28.4276C39.7926 25.0574 40.5518 22.0188 42.0704 19.3116C43.589 16.5491 45.8668 14.3668 48.9039 12.7646C51.9871 11.1624 55.7375 10.3613 60.1551 10.3613C63.2383 10.3613 66.2524 10.8033 69.1975 11.6873C72.1426 12.5712 74.7195 13.842 76.9283 15.4994L73.4771 25.6928C69.0134 22.6541 64.5497 21.1348 60.0861 21.1348C56.9569 21.1348 54.6331 21.7425 53.1145 22.958C51.642 24.1735 50.9057 25.7757 50.9057 27.7646C50.9057 29.7536 51.757 31.2453 53.4596 32.2398C55.2083 33.179 57.8543 34.1182 61.3976 35.0574C65.0789 36.1072 68.0931 37.1569 70.4399 38.2066C72.7868 39.2563 74.7885 40.9138 76.4452 43.179C78.1478 45.4442 78.9991 48.5105 78.9991 52.3779C78.9991 55.6928 78.2168 58.7315 76.6522 61.4939C75.1337 64.2011 72.8328 66.3558 69.7497 67.958C66.6665 69.5602 62.9161 70.3613 58.4985 70.3613Z" fill="#FFC107"/>
</svg>
