<svg width="80" height="81" viewBox="0 0 80 81" fill="none" xmlns="http://www.w3.org/2000/svg">
<g clip-path="url(#clip0)">
<g clip-path="url(#clip1)">
<path d="M73.6264 53.6047C73.6264 58.5462 70.2726 62.8217 65.4715 63.9984L64.3796 64.2658L49.9167 67.8131C48.6063 68.1403 47.2489 67.3395 46.9193 65.9973C46.594 64.6674 47.407 63.3258 48.7369 63.0005L64.2917 59.1858C64.3216 59.1791 64.3516 59.1705 64.3796 59.1626C66.9101 58.4998 68.6698 56.228 68.6698 53.6047C68.6698 50.9399 66.8461 48.6914 64.3796 48.045C63.9133 47.9211 63.4263 47.8571 62.9221 47.8571H49.3265C47.9569 47.8571 46.8485 46.748 46.8485 45.3784C46.8485 44.0106 47.9569 42.9004 49.3265 42.9004H62.9221C63.4159 42.9004 63.9036 42.9333 64.3796 42.9993C69.5951 43.7115 73.6264 48.1958 73.6264 53.6047Z" fill="#AED0FF"/>
<path d="M59.8781 40.2111L55.7961 62.3101C54.7994 71.1803 47.6637 77.863 39.1902 77.863C30.7161 77.863 23.5805 71.1803 22.5844 62.3101L18.5024 40.2111C18.3156 39.1967 19.095 38.2598 20.1277 38.2598H58.2527C59.2848 38.2598 60.0649 39.1967 59.8781 40.2111Z" fill="#4895FF"/>
<path d="M71.4833 72.308L67.964 76.2521C65.3145 79.2227 60.9047 81 56.1879 81H22.1901C17.4733 81 13.0635 79.2227 10.4121 76.2521L6.89467 72.308C6.42043 71.7764 6.79702 70.9316 7.51052 70.9316H70.8668C71.5809 70.9316 71.9575 71.7764 71.4833 72.308Z" fill="#AED0FF"/>
<path d="M39.3384 1.92968C38.4827 0.860954 36.9232 0.688224 35.8551 1.54394C34.7864 2.39965 34.6137 3.9591 35.4694 5.02721C36.8836 6.79418 37.7136 10.3153 33.3862 13.0643C29.115 15.7786 27.5208 21.2766 29.679 25.8542L32.1161 31.0245C32.6996 32.2617 34.176 32.7927 35.4144 32.2092C36.6528 31.6257 37.1832 30.1487 36.5991 28.9109L34.162 23.7406C33.0664 21.417 33.8757 18.6258 36.0443 17.2483C42.6593 13.0454 42.7405 6.17956 39.3384 1.92968Z" fill="#FF5E93"/>
<path d="M51.1019 12.4286C51.9191 11.3306 51.6915 9.77787 50.5934 8.96061C49.4954 8.14396 47.9427 8.37162 47.126 9.46964L44.0804 13.5627C42.2933 15.965 42.1346 19.1755 43.6769 21.7414C44.3495 22.8608 44.4979 23.9277 43.6318 24.9115L41.8019 26.9892C40.8974 28.0164 40.9969 29.5826 42.0241 30.4871C43.0513 31.391 44.6175 31.2915 45.522 30.2649L47.3513 28.1873C49.3801 25.8838 49.9397 22.5409 47.9256 19.1883C47.4227 18.3515 47.4745 17.3047 48.0568 16.5216L51.1019 12.4286Z" fill="#FF3C7D"/>
</g>
</g>
<defs>
<clipPath id="clip0">
<rect width="80" height="80" fill="white" transform="translate(0 0.933594)"/>
</clipPath>
<clipPath id="clip1">
<rect width="80" height="80" fill="white" transform="translate(0.121094 1)"/>
</clipPath>
</defs>
</svg>
