<svg width="131" height="131" viewBox="0 0 131 131" fill="none" xmlns="http://www.w3.org/2000/svg">
<g clip-path="url(#clip0)">
<path d="M127.347 14.3349V110.394C127.347 111.954 126.082 113.219 124.521 113.219H74.8533C72.7626 98.9236 72.9886 78.3555 76.492 70.8404H53.89C53.89 51.7982 64.0045 25.975 72.9888 11.5098H124.522C126.082 11.5095 127.347 12.7745 127.347 14.3349Z" fill="#CFD8DC"/>
<path d="M134.56 14.3349V110.394C134.56 111.954 133.295 113.219 131.735 113.219H82.0664C79.9758 98.9236 80.2017 78.3555 83.7052 70.8404H61.1031C61.1031 51.7982 71.2176 25.975 80.202 11.5098H131.735C133.295 11.5095 134.56 12.7745 134.56 14.3349Z" fill="#E1E8EB"/>
<path d="M74.8533 113.22H5.86024C4.29989 113.22 3.03488 111.955 3.03488 110.394V14.3351C3.03488 12.7748 4.29989 11.5098 5.86024 11.5098H72.9886C64.0042 25.975 53.8897 51.7982 53.8897 70.8404H76.4918C72.9886 78.3558 72.7627 98.9236 74.8533 113.22Z" fill="#2196F3"/>
<path d="M69.1478 113.219H2.90376C1.40559 113.219 0.190979 111.954 0.190979 110.394V14.3351C0.190979 12.7748 1.40559 11.5098 2.90376 11.5098H67.3574C58.731 25.975 49.0195 51.7981 49.0195 70.8402H70.721C67.3574 78.3556 67.1404 98.9234 69.1478 113.219Z" fill="#48AEFF"/>
<path d="M79.3174 130.171C78.5675 130.172 77.8479 129.876 77.3171 129.346C70.689 122.718 69.0163 88.4531 72.599 73.6655H53.8899C52.3296 73.6655 51.0646 72.4005 51.0646 70.8401C51.0646 46.7972 66.9538 11.3964 77.3171 1.03341C78.4012 -0.0888385 80.1896 -0.120093 81.3121 0.964015C82.4346 2.04812 82.4656 3.83652 81.3815 4.95903C81.3587 4.9826 81.3357 5.00565 81.3121 5.02843C72.2146 14.1201 57.9472 45.7123 56.7887 68.0092H76.492C78.0523 68.0087 79.3176 69.2731 79.3182 70.8335C79.3184 71.2477 79.2273 71.6572 79.0517 72.0323C74.1018 82.6101 76.5823 120.627 81.3118 125.345C82.4166 126.447 82.4187 128.236 81.3169 129.341C80.7855 129.873 80.0638 130.172 79.3115 130.171H79.3174V130.171Z" fill="#455A64"/>
<path d="M65.1908 96.2676C51.3035 95.5969 37.6172 92.6773 24.6651 87.6223C23.1999 87.0841 22.4487 85.4599 22.9869 83.9946C23.5251 82.5294 25.1493 81.7782 26.6145 82.3164C38.9492 87.1195 51.972 89.9216 65.1908 90.6171C78.4118 89.9205 91.4364 87.1164 103.773 82.3108C105.238 81.7726 106.862 82.5238 107.4 83.9891C107.939 85.4543 107.187 87.0785 105.722 87.6167C92.7687 92.6741 79.0803 95.5956 65.1908 96.2676Z" fill="#455A64"/>
<path d="M39.7634 45.4128C38.2031 45.4128 36.9381 44.1478 36.9381 42.5875V31.2863C36.9381 29.726 38.2031 28.4609 39.7634 28.4609C41.3238 28.4609 42.5888 29.726 42.5888 31.2863V42.5875C42.5888 44.1481 41.3238 45.4128 39.7634 45.4128Z" fill="#455A64"/>
<path d="M84.9678 45.4128C83.4075 45.4128 82.1424 44.1478 82.1424 42.5875V31.2863C82.1424 29.726 83.4075 28.4609 84.9678 28.4609C86.5281 28.4609 87.7932 29.726 87.7932 31.2863V42.5875C87.7932 44.1481 86.5281 45.4128 84.9678 45.4128Z" fill="#455A64"/>
</g>
<defs>
<clipPath id="clip0">
<rect width="130" height="130" fill="white" transform="translate(0.190979 0.170898)"/>
</clipPath>
</defs>
</svg>
