<svg xmlns="http://www.w3.org/2000/svg" fill="#fff" preserveAspectRatio="xMidYMid meet" height="1em" width="1em" viewBox="0 0 40 40">
  <g>
    <path d="M26.9076184,19.8096616 C26.680007,15.199769 23.3977769,12.428026 19.4332382,12.428026 L19.2839504,12.428026 C14.7091187,12.428026 12.1717509,16.1777412 12.1717509,20.4369883 C12.1717509,25.2068628 15.2416138,28.2191267 19.2660779,28.2191267 C23.7536497,28.2191267 26.7047131,24.7932107 26.9181316,20.7410637 L26.9076184,19.8096616 Z M19.3065538,8.30410621 C22.3632752,8.30410621 25.2370663,9.71216703 27.347597,11.9168506 L27.347597,11.9256167 C27.347597,10.8665577 28.0309569,10.0688392 28.9803015,10.0688392 L29.2200031,10.0671956 C30.7049967,10.0671956 31.0093547,11.5316884 31.0093547,11.9951979 L31.016714,28.4558125 C30.9121073,29.5324037 32.0838067,30.0885055 32.7335243,29.3981722 C35.2693151,26.6817654 38.3029074,15.4348111 31.1570656,8.91773583 C24.496935,2.84225472 15.561216,3.84378592 10.8087108,7.25764856 C5.75657856,10.8895689 2.52376063,18.9264732 5.66406215,26.4752133 C9.08716952,34.7109994 18.8828707,37.1655178 24.7045713,34.7170261 C27.6524807,33.4766176 29.0144695,37.630671 25.9524915,38.9872308 C21.3261451,41.0423421 8.45006784,40.8352421 2.43492385,29.9750936 C-1.62896484,22.6416718 -1.41239232,9.73846544 9.36577009,3.05373779 C17.6112956,-2.05965974 28.4819745,-0.643380663 35.0369728,6.49225518 C41.8889698,13.9511423 41.4894671,27.9183387 34.8056817,33.3517002 C31.7778718,35.8177242 27.2803124,33.4163505 27.3092238,29.8211384 L27.2776841,28.6453802 C25.169256,30.8265047 22.3632752,32.0986904 19.3065538,32.0986904 C13.2661781,32.0986904 7.95174078,26.5590395 7.95174078,20.2655007 C7.95174078,13.9073117 13.2661781,8.30410621 19.3065538,8.30410621 L19.3065538,8.30410621 Z"></path>
  </g>
</svg>

