<svg width="131" height="131" viewBox="0 0 131 131" fill="none" xmlns="http://www.w3.org/2000/svg">
<g clip-path="url(#clip0)">
<path d="M93.3518 130.083H30.9692C28.5858 130.083 26.6528 128.151 26.6528 125.767V10.4092C26.6528 8.02484 28.5858 6.09277 30.9692 6.09277H93.3518C95.7361 6.09277 97.6682 8.02484 97.6682 10.4092V125.767C97.6682 128.151 95.7361 130.083 93.3518 130.083Z" fill="#00A2FF"/>
<path d="M93.1405 6.09277H91.4653V118.285C91.4653 120.786 89.438 122.813 86.9367 122.813H26.6528V125.556C26.6528 128.056 28.6801 130.083 31.1814 130.083H93.1405C95.6409 130.083 97.6682 128.056 97.6682 125.556V10.6214C97.6682 8.12006 95.6409 6.09277 93.1405 6.09277Z" fill="#0088FF"/>
<path d="M86.4794 113.146H37.8415C36.4391 113.146 35.3024 112.009 35.3024 110.607V17.0195C35.3024 15.6171 36.4391 14.4805 37.8415 14.4805H86.4794C87.8818 14.4805 89.0185 15.6171 89.0185 17.0195V110.607C89.0185 112.009 87.8818 113.146 86.4794 113.146Z" fill="#9AF1FF"/>
<path d="M86.3554 14.4805H83.0794V97.9611C83.0794 99.4329 81.8873 100.625 80.4164 100.625H35.3024V110.482C35.3024 111.954 36.4946 113.146 37.9655 113.146H86.3554C87.8263 113.146 89.0185 111.953 89.0185 110.482V17.1445C89.0185 15.6726 87.8263 14.4805 86.3554 14.4805Z" fill="#32E4FF"/>
<path d="M65.4131 121.478C65.4131 123.274 63.9571 124.731 62.1609 124.731C60.3647 124.731 58.9087 123.274 58.9087 121.478C58.9087 119.682 60.3647 118.226 62.1609 118.226C63.9571 118.226 65.4131 119.682 65.4131 121.478Z" fill="#32E4FF"/>
<path d="M112.773 61.3862H89.1939C84.1456 61.3862 80.0533 57.2939 80.0533 52.2456V28.667C80.0533 23.6186 84.1456 19.5264 89.1939 19.5264H112.773C117.821 19.5264 121.913 23.6186 121.913 28.667V52.2456C121.913 57.2939 117.821 61.3862 112.773 61.3862Z" fill="#FAD200"/>
<path d="M113.965 19.6689C114.893 21.1458 115.432 22.8924 115.432 24.7649V50.3767C115.432 54.0544 112.45 57.0358 108.772 57.0358H83.1607C82.6013 57.0358 82.0538 56.9852 81.5212 56.893C83.2172 59.5907 86.2195 61.3859 89.6422 61.3859H112.324C117.62 61.3859 121.913 57.0923 121.913 51.797V29.1151C121.913 24.3791 118.478 20.4475 113.965 19.6689Z" fill="#FAB700"/>
<path d="M73.9022 61.8164H50.8751C44.6008 61.8164 39.4969 66.9203 39.4969 73.1946V96.2217C39.4969 102.495 44.6008 107.6 50.8751 107.6H73.9022C80.1755 107.6 85.2804 102.495 85.2804 96.2217V73.1946C85.2804 66.9203 80.1755 61.8164 73.9022 61.8164ZM65.1633 84.6828L80.354 69.4683C80.9908 70.5653 81.3567 71.8378 81.3567 73.1946V96.2217C81.3567 97.5646 80.9977 98.8242 80.3738 99.9133L65.1633 84.6828ZM73.9022 65.7401C75.2332 65.7401 76.4839 66.0931 77.566 66.7071L62.3911 81.9067L47.2103 66.7071C48.2934 66.0931 49.5441 65.7401 50.8751 65.7401H73.9022ZM50.8751 103.676C46.765 103.676 43.4206 100.332 43.4206 96.2217V73.1946C43.4206 71.8378 43.7865 70.5653 44.4233 69.4683L59.619 84.6828L49.2921 95.0256C48.5265 95.7922 48.5275 97.035 49.2941 97.8007C49.677 98.1825 50.1788 98.3739 50.6807 98.3739C51.1835 98.3739 51.6854 98.1815 52.0692 97.7987L62.3911 87.4599L77.6007 102.689C76.5097 103.316 75.2471 103.676 73.9022 103.676H50.8751Z" fill="#00A2FF"/>
<path d="M56.222 39.4393H11.2548C10.1707 39.4393 9.29297 38.5605 9.29297 37.4774C9.29297 36.3944 10.1717 35.5156 11.2548 35.5156H56.222C57.3051 35.5156 58.1828 36.3944 58.1828 37.4774C58.1828 38.5605 57.3051 39.4393 56.222 39.4393Z" fill="#00A2FF"/>
<path d="M63.858 48.1541H41.4587C40.3757 48.1541 39.4969 47.2764 39.4969 46.1923C39.4969 45.1092 40.3757 44.2305 41.4587 44.2305H63.858C64.9411 44.2305 65.8189 45.1092 65.8189 46.1923C65.8189 47.2764 64.9411 48.1541 63.858 48.1541Z" fill="#00A2FF"/>
<path d="M63.858 30.9051H11.2548C10.1707 30.9051 9.29297 30.0273 9.29297 28.9433C9.29297 27.8602 10.1717 26.9814 11.2548 26.9814H63.857C64.9411 26.9814 65.8189 27.8602 65.8189 28.9433C65.8189 30.0273 64.9411 30.9051 63.858 30.9051Z" fill="#00A2FF"/>
<path d="M63.858 56.6883H41.4587C40.3757 56.6883 39.4969 55.8105 39.4969 54.7265C39.4969 53.6434 40.3757 52.7646 41.4587 52.7646H63.858C64.9411 52.7646 65.8189 53.6434 65.8189 54.7265C65.8189 55.8095 64.9411 56.6883 63.858 56.6883Z" fill="#00A2FF"/>
<path d="M110.623 41.9423C110.623 47.2664 106.308 51.5818 100.984 51.5818C95.6596 51.5818 91.3432 47.2664 91.3432 41.9423C91.3432 36.6182 95.6596 32.3018 100.984 32.3018C106.308 32.3018 110.623 36.6182 110.623 41.9423Z" fill="#FF6914"/>
<path d="M102.473 41.9428H78.8949C73.8465 41.9428 69.7543 37.8496 69.7543 32.8022V9.22363C69.7543 4.17526 73.8465 0.0830078 78.8949 0.0830078H102.473C107.522 0.0830078 111.614 4.17526 111.614 9.22363V32.8022C111.614 37.8496 107.522 41.9428 102.473 41.9428Z" fill="#005CA0"/>
<path d="M103.665 0.225586C104.594 1.70241 105.133 3.44801 105.133 5.32156V30.9334C105.133 34.61 102.151 37.5915 98.4734 37.5915H72.8616C72.3023 37.5915 71.7548 37.5409 71.2222 37.4486C72.9182 40.1474 75.9204 41.9426 79.3432 41.9426H102.025C107.32 41.9426 111.614 37.649 111.614 32.3537V9.67169C111.614 4.93575 108.179 1.00417 103.665 0.225586Z" fill="#005182"/>
<path d="M100.384 24.6299V8.68741C100.384 7.60335 99.5059 6.72559 98.4218 6.72559H83.6268C82.5438 6.72559 81.665 7.60335 81.665 8.68741V21.2597C81.6392 21.2597 81.6144 21.2558 81.5887 21.2558C79.3412 21.2558 77.5202 23.0777 77.5202 25.3242C77.5202 27.5707 79.3412 29.3917 81.5887 29.3917C83.8351 29.3917 85.6561 27.5707 85.6561 25.3242C85.6561 25.0792 85.6303 24.8402 85.5897 24.6071V15.9713H96.46V21.2825C96.4342 21.2816 96.4094 21.2786 96.3827 21.2786C94.1362 21.2786 92.3152 23.0996 92.3152 25.346C92.3152 27.5925 94.1362 29.4135 96.3827 29.4135C98.6291 29.4135 100.451 27.5925 100.451 25.346C100.451 25.1011 100.425 24.863 100.384 24.6299ZM85.5887 12.0477V10.6492H96.46V12.0477H85.5887Z" fill="#00A2FF"/>
</g>
<defs>
<clipPath id="clip0">
<rect width="130" height="130" fill="white" transform="translate(0.660034 0.0830078)"/>
</clipPath>
</defs>
</svg>
