<?xml version="1.0" standalone="no"?>
<!DOCTYPE svg PUBLIC "-//W3C//DTD SVG 20010904//EN"
 "http://www.w3.org/TR/2001/REC-SVG-20010904/DTD/svg10.dtd">
<svg version="1.0" xmlns="http://www.w3.org/2000/svg"
 width="300.000000pt" height="327.000000pt" viewBox="0 0 300.000000 327.000000"
 preserveAspectRatio="xMidYMid meet">
<metadata>
Created by potrace 1.16, written by Peter Selinger 2001-2019
</metadata>
<g transform="translate(0.000000,327.000000) scale(0.100000,-0.100000)"
fill="#000000" stroke="none">
<path d="M1348 3221 c-122 -55 -416 -210 -723 -381 -116 -64 -262 -146 -325
-181 -131 -73 -231 -163 -271 -244 l-24 -50 -3 -715 -2 -715 30 -61 c56 -113
91 -138 610 -436 543 -311 791 -438 860 -438 69 0 317 127 860 438 519 298
554 323 610 436 l30 61 -2 715 -3 715 -24 50 c-48 97 -135 168 -361 295 -511
286 -850 465 -988 524 -112 48 -141 47 -274 -13z m324 -1285 c181 -39 308
-155 308 -284 0 -71 -35 -120 -117 -161 -63 -31 -103 -28 -128 11 -34 55 -107
92 -187 96 -87 5 -146 -16 -203 -73 -125 -125 -91 -367 64 -447 116 -61 273
-24 333 78 22 37 42 42 99 22 82 -27 149 -104 149 -169 0 -55 -33 -124 -84
-174 -90 -89 -221 -134 -389 -135 -298 0 -519 149 -607 410 -30 89 -38 267
-16 368 48 226 208 392 436 451 91 24 246 27 342 7z"/>
</g>
</svg>
