<svg width="131" height="131" viewBox="0 0 131 131" fill="none" xmlns="http://www.w3.org/2000/svg">
<g clip-path="url(#clip0)">
<path d="M52.7879 94.7246H77.7769V116.267H52.7879V94.7246Z" fill="#1DC2FF"/>
<path d="M70.4791 94.7246H77.7769V116.267H70.4791V94.7246Z" fill="#00A2FF"/>
<path d="M126.361 10.4795H4.20444C2.0383 10.4795 0.282776 12.235 0.282776 14.4012V95.8279C0.282776 97.994 2.0383 99.7495 4.20444 99.7495H126.361C128.528 99.7495 130.283 97.994 130.283 95.8279V14.4012C130.283 12.235 128.528 10.4795 126.361 10.4795Z" fill="#1DC2FF"/>
<path d="M126.361 10.4795H124.234V89.02C124.234 91.1851 122.477 92.9417 120.312 92.9417H0.282776V95.8279C0.282776 97.994 2.0383 99.7495 4.20444 99.7495H126.361C128.528 99.7495 130.283 97.994 130.283 95.8279V14.4012C130.283 12.235 128.528 10.4795 126.361 10.4795Z" fill="#00A2FF"/>
<path d="M45.1856 113.952H85.3802C87.0435 113.952 88.3923 115.3 88.3923 116.964V117.143C88.3923 118.807 87.0435 120.156 85.3802 120.156H45.1856C43.5223 120.156 42.1734 118.807 42.1734 117.143V116.964C42.1734 115.3 43.5223 113.952 45.1856 113.952Z" fill="#1DC2FF"/>
<path d="M85.3802 113.951H75.224C76.8873 113.951 78.2361 115.3 78.2361 116.964V117.143C78.2361 118.807 76.8873 120.156 75.224 120.156H85.3802C87.0435 120.156 88.3924 118.807 88.3924 117.143V116.964C88.3924 115.3 87.0435 113.951 85.3802 113.951Z" fill="#00A2FF"/>
<path d="M121.008 87.5023H9.55731C8.8561 87.5023 8.28778 86.934 8.28778 86.2328V20.5811C8.28778 19.8798 8.8561 19.3115 9.55731 19.3115H121.008C121.71 19.3115 122.278 19.8798 122.278 20.5811V86.2328C122.278 86.934 121.71 87.5023 121.008 87.5023Z" fill="#D2FFFF"/>
</g>
<defs>
<clipPath id="clip0">
<rect width="130" height="130" fill="white" transform="translate(0.536682 0.0693359)"/>
</clipPath>
</defs>
</svg>
