<svg width="81" height="81" viewBox="0 0 81 81" fill="none" xmlns="http://www.w3.org/2000/svg">
<g clip-path="url(#clip0)">
<path d="M77.9373 66.6032C72.4191 62.292 77.42 51.773 77.42 51.773C87.4218 26.2512 70.1171 13.3943 67.1584 11.7186C61.1344 8.30672 46.8059 4.96361 39.5725 14.1449C37.5267 16.7415 38.2105 19.9663 39.1521 22.2202C41.5758 28.0201 48.0909 33.2352 53.6752 33.844C55.2677 34.0219 56.4275 33.6568 57.213 32.742C59.7093 29.836 58.3931 22.1904 57.6737 19.4893C57.4784 18.7537 57.9162 17.9979 58.6532 17.8012C58.8656 17.7448 59.0752 17.7536 59.2769 17.7947C59.7746 17.8956 60.2022 18.2554 60.3413 18.7806C60.643 19.9177 63.1853 30.0259 59.3067 34.5405C58.4513 35.5361 56.9303 36.6448 54.4014 36.6448C54.0767 36.6448 53.7346 36.626 53.3762 36.5868C46.7883 35.8674 39.4229 30.0245 36.606 23.283C35.8972 21.587 35.5437 19.9465 35.5055 18.3991C19.7097 18.3991 1.67768 27.2049 0.503072 43.0439C0.465375 43.552 0.777876 44.0206 1.26159 44.1809C1.74531 44.3427 2.27734 44.1542 2.55088 43.7245C3.52085 42.2014 4.72872 40.5524 5.92851 39.5137C6.10068 42.0082 6.85841 44.3914 8.16749 46.5671C10.7891 50.924 12.189 55.9275 12.189 61.0118L12.214 70.3968C12.3475 71.5468 15.0642 72.4661 18.4198 72.4661C21.7767 72.4661 24.4934 71.5468 24.6271 70.3968L24.6521 64.306C24.6521 62.7069 25.3189 61.179 26.491 60.0903C27.6631 59.0017 29.2336 58.5653 30.8329 58.5653C31.8249 58.5653 33.8548 58.5667 33.9734 58.5653C35.5079 58.5493 36.9858 59.2522 38.0755 60.3328C39.1668 61.4133 39.7799 62.8844 39.7799 64.419L39.805 70.3966C39.9385 71.5467 42.655 72.466 46.0108 72.466C49.3677 72.466 52.0844 71.5467 52.218 70.3966L52.2431 65.1357C52.2431 49.5188 63.6873 42.5499 65.047 41.7237C71.7953 37.6236 68.7977 50.0481 68.7977 50.0481C64.3142 64.0161 74.6607 70.3966 74.6607 70.3966L74.7072 70.3429C74.7395 70.3759 74.7486 70.4291 74.786 70.4573C75.4487 70.957 76.6549 70.4776 77.4778 69.3836C78.2368 68.3794 78.3756 67.2352 77.8847 66.6639L77.9373 66.6032Z" fill="#4895FF"/>
<path d="M32.5 33.5C20.4439 33.5 11 38.1125 11 44C11 49.8875 20.4439 54.5 32.5 54.5C44.5561 54.5 54 49.8875 54 44C54 38.1125 44.5561 33.5 32.5 33.5Z" fill="white"/>
<path d="M32.4994 52.7501C27.3482 52.7501 22.5946 51.8126 19.0401 50.3159L19.7617 47.5001H22.9042C25.2732 47.5001 27.3291 45.932 27.9048 43.6864L28.0614 43.0704C28.33 42.0245 28.0937 40.9367 27.4149 40.0873C26.7351 39.2371 25.7133 38.75 24.6092 38.75H20.8535C20.4423 38.75 20.0846 39.0234 19.9848 39.4131L17.3913 49.5457C14.5337 48.0237 12.791 46.0833 12.791 44C12.791 39.2567 21.8167 35.25 32.4994 35.25C43.182 35.25 52.2077 39.2567 52.2077 44C52.2077 48.7433 43.182 52.7501 32.4994 52.7501Z" fill="#4895FF"/>
<path d="M20.2109 45.75L21.5547 40.5H24.6105C25.1581 40.5 25.6664 40.7418 26.0032 41.164C26.3409 41.5861 26.4581 42.1261 26.3242 42.6465L26.1676 43.2626C25.7923 44.7272 24.4511 45.75 22.9053 45.75H20.2109Z" fill="#4895FF"/>
<path d="M45.2142 38.75H41.4585C41.0473 38.75 40.6895 39.0234 40.5897 39.4131L38.8025 46.3934C38.7989 46.4062 38.7963 46.4182 38.7928 46.4302L37.9022 49.9131C37.7815 50.3813 38.0737 50.8564 38.554 50.9735C38.6266 50.9914 38.7001 51 38.7718 51C39.1733 51 39.5382 50.7351 39.6396 50.3369L40.3666 47.5H43.509C45.8781 47.5 47.934 45.932 48.5096 43.6864L48.6663 43.0703C48.9348 42.0244 48.6986 40.9367 48.0197 40.0873C47.3401 39.2371 46.3182 38.75 45.2142 38.75ZM46.928 42.6465L46.7714 43.2625C46.3961 44.7271 45.0549 45.75 43.5091 45.75H40.8146L42.1584 40.5H45.2142C45.7618 40.5 46.2701 40.7418 46.6069 41.1639C46.9447 41.5861 47.0618 42.1261 46.928 42.6465Z" fill="white"/>
<path d="M37.3284 39.8181C36.7624 39.1396 35.9243 38.75 35.0276 38.75H32.1878L32.4845 37.1563C32.5738 36.6812 32.2509 36.2258 31.7636 36.1395C31.2799 36.0523 30.8101 36.3676 30.7226 36.8436L28.9309 46.4686C28.8416 46.9437 29.1644 47.3992 29.6517 47.4855C29.7059 47.4957 29.7593 47.5 29.8127 47.5C30.2379 47.5 30.6149 47.2044 30.6928 46.7814L31.862 40.5H35.0276C35.3828 40.5 35.7143 40.6538 35.9383 40.923C36.1623 41.1921 36.2497 41.5408 36.1772 41.8809L35.2052 46.4473C35.1046 46.9198 35.416 47.3829 35.9007 47.4821C35.9619 47.4941 36.0232 47.5001 36.0835 47.5001C36.4991 47.5001 36.8717 47.2164 36.9602 46.8028L37.9321 42.2364C38.114 41.3792 37.8936 40.4974 37.3284 39.8181Z" fill="white"/>
</g>
<defs>
<clipPath id="clip0">
<rect width="80" height="80" fill="white" transform="translate(0.5 0.333984)"/>
</clipPath>
</defs>
</svg>
