<svg width="131" height="131" viewBox="0 0 131 131" fill="none" xmlns="http://www.w3.org/2000/svg">
<g clip-path="url(#clip0)">
<path d="M130.099 63.9348V78.6743C130.099 86.471 123.779 92.7899 115.982 92.7899H71.9432C69.5251 92.7899 67.5822 94.8092 67.6952 97.2511C67.8083 99.564 69.8088 101.292 72.0642 101.292H82.4793C84.8299 101.292 86.7323 103.197 86.7323 105.545V116.172C86.7323 124.019 80.3707 130.378 72.5274 130.378H60.1723C52.326 130.378 45.9644 124.019 45.9644 116.172V78.7318H16.0551C8.25836 78.7318 1.93848 72.4119 1.93848 64.6152V52.0796C1.93848 44.2829 8.25836 37.963 16.0551 37.963H45.9644V37.961H58.8551C61.2682 37.961 63.2132 35.9496 63.1031 33.5077C62.995 31.2206 61.0262 29.4571 58.7341 29.4571H50.2174C47.8697 29.4571 45.9644 27.5538 45.9644 25.2062V14.5838C45.9644 6.7365 52.326 0.37793 60.1723 0.37793H72.5274C80.3578 0.37793 86.7094 6.71269 86.7323 14.5441V49.8182H115.982C123.779 49.8182 130.099 56.1411 130.099 63.9348Z" fill="#FFDA44"/>
<path d="M130.099 63.9348V78.6743C130.099 86.471 123.779 92.7899 115.982 92.7899H71.9432C69.5252 92.7899 67.5822 94.8092 67.6953 97.2511C67.8083 99.564 69.8088 101.292 72.0642 101.292H82.4794C84.83 101.292 86.7323 103.197 86.7323 105.545V116.172C86.7323 124.019 80.3707 130.378 72.5274 130.378H66.3494V0.37793H72.5274C80.3578 0.37793 86.7095 6.71269 86.7323 14.5441V49.8182H115.982C123.779 49.8182 130.099 56.1411 130.099 63.9348Z" fill="#FFCD00"/>
<path d="M82.747 111.377C82.747 113.725 80.8447 115.628 78.497 115.628C76.1494 115.628 74.2461 113.725 74.2461 111.377C74.2461 109.029 76.1494 107.127 78.497 107.127C80.8447 107.127 82.747 109.029 82.747 111.377Z" fill="#4895FF"/>
<path d="M82.747 111.377C82.747 113.725 80.8447 115.628 78.4971 115.628V107.127C80.8447 107.127 82.747 109.029 82.747 111.377Z" fill="#2682FF"/>
<path d="M86.7323 14.5441V49.8182V55.6462C86.7323 60.3444 82.9266 64.1501 78.2284 64.1501H50.2174C47.8697 64.1501 45.9644 66.0563 45.9644 68.401V78.7318H16.0551C8.25836 78.7318 1.93848 72.4099 1.93848 64.6152V52.0796C1.93848 44.2849 8.25836 37.963 16.0551 37.963H45.9644V37.961H58.8551C61.2682 37.961 63.2132 35.9496 63.1031 33.5077C62.995 31.2206 61.0262 29.4571 58.7341 29.4571H50.2174C47.8697 29.4571 45.9644 27.5538 45.9644 25.2062V14.5838C45.9644 6.7365 52.326 0.37793 60.1723 0.37793H72.5274C80.3578 0.37793 86.7094 6.71269 86.7323 14.5441Z" fill="#4895FF"/>
<path d="M86.7323 14.5441V49.8182V55.6462C86.7323 60.3444 82.9267 64.1501 78.2284 64.1501H66.3494V0.37793H72.5274C80.3578 0.37793 86.7095 6.71269 86.7323 14.5441Z" fill="#2682FF"/>
<path d="M59.4314 20.3594C59.4314 22.706 57.5281 24.6093 55.1804 24.6093C52.8298 24.6093 50.9275 22.706 50.9275 20.3594C50.9275 18.0117 52.8298 16.1055 55.1804 16.1055C57.5281 16.1055 59.4314 18.0117 59.4314 20.3594Z" fill="#FFDA44"/>
<path d="M59.4314 20.3594C59.4314 22.706 57.5281 24.6093 55.1804 24.6093V16.1055C57.5281 16.1055 59.4314 18.0117 59.4314 20.3594Z" fill="#FFCD00"/>
</g>
<defs>
<clipPath id="clip0">
<rect width="130" height="130" fill="white" transform="translate(0.922852 0.37793)"/>
</clipPath>
</defs>
</svg>
