<svg width="131" height="131" viewBox="0 0 131 131" fill="none" xmlns="http://www.w3.org/2000/svg">
<g clip-path="url(#clip0)">
<path d="M107.348 130.392H111.542C112.7 130.392 113.639 129.454 113.639 128.295V75.876H105.252V128.295C105.252 129.454 106.19 130.392 107.348 130.392Z" fill="#9C969E"/>
<path d="M107.348 130.393H111.542C112.7 130.393 113.639 129.454 113.639 128.296V122.006H105.252V128.296C105.252 129.454 106.19 130.393 107.348 130.393Z" fill="#AEA8AF"/>
<path d="M113.639 83.3896L105.252 86.8841V75.876H113.639V83.3896Z" fill="#867E88"/>
<path d="M23.4777 130.392H19.2841C18.1261 130.392 17.1874 129.454 17.1874 128.295V75.876H25.5744V128.295C25.5744 129.454 24.6357 130.392 23.4777 130.392Z" fill="#9C969E"/>
<path d="M23.4777 130.393H19.2841C18.1261 130.393 17.1874 129.454 17.1874 128.296V122.006H25.5744V128.296C25.5744 129.454 24.6357 130.393 23.4777 130.393Z" fill="#AEA8AF"/>
<path d="M17.1874 83.3896L25.5744 86.8841V75.876H17.1874V83.3896Z" fill="#867E88"/>
<path d="M88.4776 130.393H42.3485C41.1904 130.393 40.2517 129.454 40.2517 128.296V119.909H90.5744V128.296C90.5744 129.454 89.6357 130.393 88.4776 130.393Z" fill="#C9C6CA"/>
<path d="M90.5727 119.909H40.251V126.199H90.5727V119.909Z" fill="#B7B2B8"/>
<path d="M90.5745 122.006H40.2518C36.7778 122.006 33.9615 119.189 33.9615 115.715V82.167H96.8647V115.715C96.8647 119.189 94.0484 122.006 90.5745 122.006Z" fill="#DBD9DC"/>
<path d="M96.8647 82.167H33.9615V90.3793L45.3538 95.1261C46.2018 95.4795 46.7175 96.3421 46.6276 97.2564C46.573 97.8109 46.5425 98.372 46.5425 98.9411C46.5425 109.363 54.9913 117.812 65.4134 117.812C75.8355 117.812 84.2842 109.363 84.2842 98.9411C84.2842 98.372 84.2535 97.8107 84.1991 97.2564C84.1092 96.3421 84.6247 95.4793 85.473 95.1261L96.8652 90.3793V82.167H96.8647Z" fill="#C9C6CA"/>
<path d="M69.6051 46.5225H61.2186V73.7818H69.6051V46.5225Z" fill="#867E88"/>
<path d="M69.6066 73.7793H65.4131V57.005C65.4131 55.8469 66.3518 54.9082 67.5098 54.9082H69.6066V73.7793Z" fill="#9C969E"/>
<path d="M113.155 79.0483L65.4131 98.9411L17.6711 79.0483C16.1083 78.3972 15.0904 76.8703 15.0904 75.1772V73.7795C15.0904 71.4633 16.968 69.5859 19.2839 69.5859H111.542C113.858 69.5859 115.736 71.4636 115.736 73.7795V75.1772C115.736 76.8703 114.718 78.3972 113.155 79.0483Z" fill="#EDEBED"/>
<path d="M65.4131 113.618C73.5191 113.618 80.0904 107.047 80.0904 98.941C80.0904 90.8349 73.5191 84.2637 65.4131 84.2637C57.307 84.2637 50.7358 90.8349 50.7358 98.941C50.7358 107.047 57.307 113.618 65.4131 113.618Z" fill="#DBD9DC"/>
<path d="M111.542 31.8442H19.2842C16.968 31.8442 15.0906 29.9666 15.0906 27.6507V23.4572C15.0906 21.1411 16.9683 19.2637 19.2842 19.2637H111.542C113.858 19.2637 115.736 21.1413 115.736 23.4572V27.6507C115.736 29.9666 113.858 31.8442 111.542 31.8442Z" fill="#9C969E"/>
<path d="M84.2842 50.7153H46.542C32.6457 50.7153 21.3807 39.4502 21.3807 25.5539C21.3809 11.6576 32.646 0.392578 46.542 0.392578H84.2839C98.1802 0.392578 109.445 11.6576 109.445 25.5539C109.445 39.45 98.1802 50.7153 84.2842 50.7153Z" fill="#EDEBED"/>
<path d="M84.2841 42.3277C93.9179 42.3277 101.655 34.2065 101.022 24.4369C100.445 15.5213 92.6438 8.7793 83.7093 8.7793H78.8622C78.3062 8.7793 77.7727 9.00019 77.3797 9.3935L75.0285 11.7447C74.2422 12.531 73.1755 12.9728 72.0631 12.9728H58.763C57.6509 12.9728 56.5842 12.531 55.7976 11.7447L53.4465 9.3935C53.0532 9.00019 52.52 8.7793 51.9639 8.7793H47.1168C38.1826 8.7793 30.3814 15.5213 29.804 24.4369C29.1713 34.2065 36.9083 42.3277 46.542 42.3277H84.2841Z" fill="#99E7FF"/>
<path d="M44.4452 33.9411C40.9713 33.9411 38.155 31.1247 38.155 27.6508V23.4573C38.155 19.9833 40.9713 17.167 44.4452 17.167C47.9192 17.167 50.7355 19.9833 50.7355 23.4573V27.6508C50.7358 31.1247 47.9194 33.9411 44.4452 33.9411Z" fill="#CCF3FF"/>
<path d="M86.3809 33.9411C82.907 33.9411 80.0906 31.1247 80.0906 27.6508V23.4573C80.0906 19.9833 82.907 17.167 86.3809 17.167C89.8549 17.167 92.6712 19.9833 92.6712 23.4573V27.6508C92.6712 31.1247 89.8549 33.9411 86.3809 33.9411Z" fill="#CCF3FF"/>
<path d="M44.4452 29.7476C42.9975 29.7476 41.8242 28.5743 41.8242 27.1266V23.9814C41.8242 22.5337 42.9975 21.3604 44.4452 21.3604C45.893 21.3604 47.0663 22.5337 47.0663 23.9814V27.1266C47.0663 28.5743 45.893 29.7476 44.4452 29.7476Z" fill="white"/>
<path d="M86.3809 29.7476C84.9331 29.7476 83.7598 28.5743 83.7598 27.1266V23.9814C83.7598 22.5337 84.9331 21.3604 86.3809 21.3604C87.8287 21.3604 89.002 22.5337 89.002 23.9814V27.1266C89.0017 28.5743 87.8284 29.7476 86.3809 29.7476Z" fill="white"/>
<path d="M65.4131 107.328C70.0448 107.328 73.7996 103.573 73.7996 98.9412C73.7996 94.3095 70.0448 90.5547 65.4131 90.5547C60.7813 90.5547 57.0266 94.3095 57.0266 98.9412C57.0266 103.573 60.7813 107.328 65.4131 107.328Z" fill="#4BD7C8"/>
<path d="M83.7093 12.9728C90.6447 12.9728 96.4112 18.1274 96.8373 24.7079C97.0658 28.2361 95.8681 31.5913 93.4651 34.1547C91.0599 36.7209 87.7992 38.1342 84.2841 38.1342H46.542C43.0269 38.1342 39.7663 36.7209 37.361 34.1547C34.958 31.591 33.7606 28.2361 33.9889 24.7079C34.4149 18.1274 40.1816 12.9728 47.1168 12.9728H51.0953L52.8325 14.71C54.4166 16.2939 56.5228 17.1663 58.763 17.1663H72.0634C74.3036 17.1663 76.4097 16.2939 77.9939 14.7098L79.7311 12.9728H83.7093ZM83.7093 8.7793H78.8622C78.3062 8.7793 77.7727 9.00019 77.3797 9.3935L75.0285 11.7447C74.2421 12.531 73.1755 12.9728 72.0634 12.9728H58.763C57.6506 12.9728 56.5842 12.531 55.7976 11.7447L53.4465 9.3935C53.0532 9.00019 52.52 8.7793 51.9639 8.7793H47.1168C38.1824 8.7793 30.3814 15.5213 29.8042 24.4369C29.1715 34.2065 36.9085 42.3277 46.542 42.3277H84.2841C93.9178 42.3277 101.655 34.2065 101.022 24.4369C100.445 15.5213 92.6435 8.7793 83.7093 8.7793Z" fill="#59D8FF"/>
<path d="M65.4131 103.135C67.7292 103.135 69.6068 101.257 69.6068 98.9408C69.6068 96.6247 67.7292 94.7471 65.4131 94.7471C63.0969 94.7471 61.2193 96.6247 61.2193 98.9408C61.2193 101.257 63.0969 103.135 65.4131 103.135Z" fill="#99E9DF"/>
</g>
<defs>
<clipPath id="clip0">
<rect width="130" height="130" fill="white" transform="translate(0.413086 0.392578)"/>
</clipPath>
</defs>
</svg>
