<svg width="131" height="131" viewBox="0 0 131 131" fill="none" xmlns="http://www.w3.org/2000/svg">
<g clip-path="url(#clip0)">
<path d="M63.4657 127.374L2.91892 66.8273C1.92709 65.8355 1.92709 64.2277 2.91892 63.2369L63.4657 2.69016C64.4565 1.69833 66.0642 1.69833 67.0561 2.69016L127.603 63.2369C128.594 64.2277 128.594 65.8355 127.603 66.8273L67.0561 127.374C66.0642 128.365 64.4565 128.365 63.4657 127.374Z" fill="#9AF1FF"/>
<path d="M127.576 63.2104L67.0818 2.71619C66.0761 1.71049 64.4455 1.71049 63.4398 2.71619L62.4401 3.71496L118.833 60.108C119.839 61.1147 119.839 62.7452 118.833 63.7509L59.3376 123.246L63.4388 127.348C64.4455 128.354 66.0761 128.354 67.0818 127.348L127.576 66.8533C128.583 65.8476 128.583 64.2171 127.576 63.2104Z" fill="#1DC2FF"/>
<path d="M17.1574 82.9988C16.6635 82.9988 16.1686 82.8103 15.7917 82.4334C15.0369 81.6787 15.0369 80.4557 15.7917 79.701L22.6541 72.8395C23.4079 72.0847 24.6308 72.0847 25.3856 72.8395C26.1403 73.5933 26.1403 74.8172 25.3856 75.571L18.5241 82.4334C18.1463 82.8103 17.6523 82.9988 17.1574 82.9988Z" fill="#1DC2FF"/>
<path d="M49.226 115.067C48.7321 115.067 48.2372 114.879 47.8603 114.502C47.1055 113.747 47.1055 112.524 47.8603 111.769L54.7653 104.864C55.5191 104.11 56.743 104.11 57.4968 104.864C58.2516 105.619 58.2516 106.842 57.4968 107.597L50.5927 114.502C50.2149 114.879 49.7209 115.067 49.226 115.067Z" fill="#1DC2FF"/>
<path d="M113.363 82.9977C112.869 82.9977 112.374 82.8093 111.997 82.4324L105.092 75.5273C104.338 74.7725 104.338 73.5496 105.092 72.7948C105.847 72.041 107.07 72.041 107.825 72.7948L114.73 79.6999C115.484 80.4547 115.484 81.6776 114.73 82.4324C114.352 82.8093 113.858 82.9977 113.363 82.9977Z" fill="#1DC2FF"/>
<path d="M81.2946 115.067C80.8007 115.067 80.3058 114.879 79.9289 114.502L73.0238 107.597C72.2691 106.842 72.2691 105.619 73.0238 104.864C73.7786 104.11 75.0015 104.11 75.7563 104.864L82.6614 111.769C83.4151 112.524 83.4151 113.747 82.6614 114.502C82.2835 114.879 81.7895 115.067 81.2946 115.067Z" fill="#1DC2FF"/>
<path d="M24.0198 57.8181C23.5249 57.8181 23.031 57.6296 22.6541 57.2527L15.7917 50.3903C15.0369 49.6365 15.0369 48.4126 15.7917 47.6589C16.5464 46.9041 17.7694 46.9041 18.5241 47.6589L25.3856 54.5213C26.1403 55.2751 26.1403 56.499 25.3856 57.2527C25.0087 57.6296 24.5138 57.8181 24.0198 57.8181Z" fill="#1DC2FF"/>
<path d="M106.459 57.8617C105.964 57.8617 105.47 57.6733 105.093 57.2954C104.339 56.5416 104.339 55.3177 105.093 54.5639L111.997 47.6589C112.752 46.9041 113.975 46.9041 114.73 47.6589C115.485 48.4126 115.485 49.6365 114.73 50.3903L107.825 57.2954C107.448 57.6733 106.953 57.8617 106.459 57.8617Z" fill="#1DC2FF"/>
<path d="M128.943 61.8445L68.4485 1.35036C66.69 -0.40715 63.8306 -0.40715 62.0731 1.35036L1.57887 61.8445C-0.178635 63.6021 -0.178635 66.4615 1.57887 68.22L31.8245 98.4656C31.8255 98.4666 31.8255 98.4666 31.8265 98.4666C31.8265 98.4676 31.8265 98.4676 31.8275 98.4686L62.0731 128.714C62.9518 129.593 64.1063 130.032 65.2608 130.032C66.4153 130.032 67.5697 129.593 68.4485 128.714L98.6941 98.4686C98.6941 98.4676 98.6951 98.4676 98.6951 98.4676C98.6961 98.4666 98.6961 98.4666 98.6961 98.4656L128.943 68.22C130.7 66.4615 130.7 63.6021 128.943 61.8445ZM126.21 65.4875L97.3293 94.3684L82.6613 79.7003C81.9065 78.9455 80.6836 78.9455 79.9288 79.7003C79.174 80.4551 79.174 81.678 79.9288 82.4328L94.5969 97.1008L65.716 125.982C65.5514 126.146 65.36 126.17 65.2608 126.17C65.1606 126.17 64.9692 126.146 64.8055 125.982L35.9247 97.1008L50.5927 82.4328C51.3475 81.678 51.3475 80.4551 50.5927 79.7003C49.8379 78.9455 48.615 78.9455 47.8603 79.7003L33.1922 94.3684L4.31134 65.4875C4.1467 65.3229 4.1219 65.1314 4.1219 65.0323C4.1219 64.9331 4.1467 64.7407 4.31134 64.577L64.8055 4.08283C64.9692 3.91818 65.1606 3.89339 65.2608 3.89339C65.36 3.89339 65.5524 3.91818 65.716 4.08283L126.21 64.577C126.375 64.7407 126.399 64.9321 126.399 65.0313C126.399 65.1314 126.375 65.3229 126.21 65.4875Z" fill="#00A2FF"/>
<path d="M129.18 42.6216C129.18 41.5118 128.69 40.52 127.918 39.8396C128.69 39.1602 129.18 38.1674 129.18 37.0585C129.18 35.0104 127.519 33.3501 125.471 33.3501C125.47 33.3501 125.469 33.3501 125.469 33.3501H106.761C102.127 33.3501 97.9749 35.4051 95.1582 38.6504V27.1274C95.1582 16.2441 86.3359 7.42188 75.4527 7.42188H54.547C43.6648 7.42188 34.8415 16.2441 34.8415 27.1274V38.6504C32.0257 35.4051 27.874 33.3501 23.2402 33.3501H4.53145C4.53046 33.3501 4.52947 33.3501 4.52947 33.3501C2.48135 33.3501 0.821045 35.0104 0.821045 37.0585C0.821045 38.1674 1.31001 39.1602 2.08165 39.8396C1.31001 40.519 0.821045 41.5118 0.821045 42.6216C0.821045 43.8168 1.38936 44.877 2.26811 45.5554C1.38936 46.2338 0.821045 47.2941 0.821045 48.4902C0.821045 50.5383 2.48135 52.1987 4.52947 52.1987H4.53145H34.8415V70.2667C34.8415 78.3133 39.6677 85.2293 46.5807 88.2901C46.3318 88.9923 46.1959 89.748 46.1959 90.5355C46.1959 94.2579 49.213 97.274 52.9343 97.274C56.6557 97.274 59.6728 94.2579 59.6728 90.5355C59.6728 90.3461 59.6629 90.1577 59.647 89.9722H70.4816C70.4658 90.1577 70.4559 90.3461 70.4559 90.5355C70.4559 94.2579 73.473 97.274 77.1943 97.274C80.9166 97.274 83.9327 94.2579 83.9327 90.5355C83.9327 89.7292 83.7909 88.9556 83.531 88.2395C90.3845 85.1539 95.1582 78.2697 95.1582 70.2667V52.1987H125.468H125.47C127.518 52.1987 129.179 50.5383 129.179 48.4902C129.179 47.2941 128.61 46.2338 127.732 45.5554C128.61 44.877 129.18 43.8168 129.18 42.6216Z" fill="#F16A51"/>
<path d="M80.4248 35.001C80.4248 43.5197 73.5188 50.4258 65 50.4258C56.4813 50.4258 49.5752 43.5197 49.5752 35.001C49.5752 26.4812 56.4813 19.5762 65 19.5762C73.5188 19.5762 80.4248 26.4812 80.4248 35.001Z" fill="#D2FFFF"/>
<path d="M64.9998 19.5762C64.0943 19.5762 63.2086 19.6585 62.3457 19.8083C69.5989 21.0669 75.1164 27.3878 75.1164 35.001C75.1164 42.6142 69.5989 48.9351 62.3457 50.1937C63.2086 50.3435 64.0943 50.4258 64.9998 50.4258C73.5186 50.4258 80.4246 43.5197 80.4246 35.001C80.4246 26.4812 73.5186 19.5762 64.9998 19.5762Z" fill="#9AF1FF"/>
<path d="M70.3091 35.6676C70.3091 38.5994 67.9317 40.9768 64.9999 40.9768C62.0681 40.9768 59.6907 38.5994 59.6907 35.6676C59.6907 32.7358 62.0681 30.3584 64.9999 30.3584C67.9317 30.3584 70.3091 32.7358 70.3091 35.6676Z" fill="#005182"/>
<path d="M64.9999 30.3584C64.4197 30.3584 63.8633 30.4546 63.3406 30.6272C65.4591 31.3244 66.9905 33.315 66.9905 35.6676C66.9905 38.0192 65.4591 40.0108 63.3406 40.7081C63.8633 40.8796 64.4197 40.9758 64.9999 40.9758C67.9317 40.9758 70.3091 38.5994 70.3091 35.6676C70.3091 32.7358 67.9317 30.3584 64.9999 30.3584Z" fill="#00476B"/>
<path d="M129.18 42.6216C129.18 41.5118 128.69 40.52 127.918 39.8396C128.69 39.1602 129.18 38.1674 129.18 37.0585C129.18 35.0104 127.519 33.3501 125.471 33.3501C125.47 33.3501 125.469 33.3501 125.469 33.3501H120.54C120.516 33.3729 120.494 33.3967 120.47 33.4185C121.241 34.0979 121.731 35.0907 121.731 36.1996C121.731 37.3957 121.163 38.456 120.284 39.1344C121.163 39.8118 121.731 40.873 121.731 42.0682C121.731 44.1163 120.071 45.7766 118.023 45.7766C118.022 45.7766 118.021 45.7766 118.021 45.7766H95.1583V27.1274C95.1583 19.7155 91.064 13.2617 85.0159 9.89746C86.1614 12.3959 86.8041 15.172 86.8041 18.0988V61.2381C86.8041 72.1214 77.9819 80.9436 67.0986 80.9436H46.194C42.7226 80.9436 39.4625 80.0431 36.6309 78.468C39.7422 85.2551 46.5917 89.9722 54.5471 89.9722H55.0401C55.0549 90.1587 55.0639 90.3461 55.0639 90.5365C55.0639 93.4485 53.2161 95.9281 50.6294 96.8703C51.3485 97.1312 52.1251 97.275 52.9344 97.275C56.6557 97.275 59.6729 94.2579 59.6729 90.5365C59.6729 90.3461 59.6629 90.1587 59.6471 89.9722H75.4527C76.754 89.9722 78.0245 89.8423 79.2564 89.6022C79.298 89.9077 79.3238 90.2192 79.3238 90.5365C79.3238 93.4485 77.4771 95.9281 74.8904 96.8703C75.6095 97.1312 76.3851 97.275 77.1944 97.275C80.9167 97.275 83.9328 94.2579 83.9328 90.5365C83.9328 89.7292 83.791 88.9566 83.5311 88.2395C90.3846 85.1539 95.1583 78.2697 95.1583 70.2667V52.1987H125.468H125.47C127.518 52.1987 129.179 50.5383 129.179 48.4902C129.179 47.2951 128.61 46.2338 127.732 45.5554C128.61 44.877 129.18 43.8168 129.18 42.6216Z" fill="#BD4D38"/>
<path d="M64.974 63.8619C61.7397 63.8619 58.7265 62.2601 56.9145 59.5773C56.3164 58.6936 56.5495 57.4925 57.4332 56.8954C58.3179 56.2983 59.518 56.5304 60.1161 57.4151C61.2091 59.0328 63.0251 59.9978 64.974 59.9978C66.9507 59.9978 68.7816 59.0099 69.8706 57.3556C70.4568 56.4639 71.6549 56.217 72.5466 56.8041C73.4382 57.3903 73.6852 58.5884 73.098 59.4791C71.2919 62.2234 68.255 63.8619 64.974 63.8619Z" fill="#00476B"/>
</g>
<defs>
<clipPath id="clip0">
<rect width="130" height="130" fill="white" transform="translate(0.260742 0.286133)"/>
</clipPath>
</defs>
</svg>
