<svg width="131" height="131" viewBox="0 0 131 131" fill="none" xmlns="http://www.w3.org/2000/svg">
<g clip-path="url(#clip0)">
<path d="M72.3184 114.263L58.1022 128.479C55.3763 131.205 50.9596 131.206 48.2337 128.479C47.5809 127.827 47.0672 127.055 46.7214 126.215C46.3735 125.377 46.193 124.471 46.191 123.545V108.981V97.7844L59.1895 84.7861L72.319 97.9156C73.0814 98.6781 73.7129 99.5203 74.2202 100.414C76.7029 104.822 76.0691 110.512 72.3184 114.263Z" fill="#FF7258"/>
<path d="M46.1219 71.7189L33.1234 84.7174H21.9231H7.3631C6.43939 84.7174 5.53092 84.5348 4.69303 84.187C3.8531 83.8412 3.08402 83.3298 2.42894 82.6747C-0.296993 79.9488 -0.296993 75.5321 2.42894 72.8062L16.6452 58.5899C20.3959 54.8392 26.0862 54.2058 30.4942 56.6887C31.388 57.1955 32.2302 57.8272 32.9924 58.5899L46.1219 71.7189Z" fill="#FF7258"/>
<path d="M32.9927 58.5888L46.1219 71.718L33.1234 84.7165H21.9231C23.0187 76.6265 25.3453 68.3713 28.8251 60.3372C29.3555 59.1148 29.912 57.8969 30.4942 56.6875C31.388 57.1948 32.2299 57.826 32.9927 58.5888Z" fill="#F95D48"/>
<path d="M74.2197 100.413C73.0083 100.997 71.7923 101.551 70.57 102.082C62.5382 105.56 54.2827 107.886 46.1907 108.98V97.7834L59.1892 84.7852L72.3187 97.9146C73.0812 98.6774 73.7129 99.5193 74.2197 100.413Z" fill="#F95D48"/>
<path d="M100.766 73.2871C80.737 93.4023 55.5952 103.701 33.5381 102.992C30.4813 102.895 28.0131 100.427 27.9143 97.3678C27.2054 75.3107 37.5059 50.1709 57.6188 30.1395C70.1209 17.6889 84.6057 9.01271 99.0969 4.39848C100.796 3.85918 102.495 3.37168 104.19 2.94435C105.208 2.68664 106.225 2.45228 107.243 2.23773C113.144 0.976834 118.987 0.405545 124.634 0.54494C127.771 0.622381 130.284 3.13555 130.361 6.2718C130.501 11.9192 129.932 17.7644 128.671 23.6654C128.456 24.6836 128.22 25.6974 127.962 26.7158C127.535 28.4106 127.047 30.1098 126.508 31.8092C121.894 46.3001 113.217 60.7852 100.766 73.2871Z" fill="#EFEFEF"/>
<path d="M56.6629 76.4357C56.1022 76.4357 55.5414 76.2219 55.1133 75.7941C54.2576 74.9382 54.2576 73.5511 55.1133 72.6954L84.3869 43.4218C85.2428 42.5664 86.6299 42.5664 87.4856 43.4218C88.3412 44.2777 88.3412 45.6648 87.4856 46.5205L58.2125 75.7941C57.7844 76.2219 57.2235 76.4357 56.6629 76.4357Z" fill="#E2E2E2"/>
<path d="M126.508 31.8085L99.0974 4.39805C100.797 3.85875 102.496 3.37125 104.191 2.94393C105.209 2.68621 106.225 2.45186 107.243 2.2373L128.671 23.6652C128.456 24.6834 128.22 25.6972 127.963 26.7156C127.534 28.41 127.047 30.1091 126.508 31.8085Z" fill="#E2E2E2"/>
<path d="M100.766 73.2862C80.737 93.4014 55.5952 103.7 33.5381 102.991C30.4813 102.894 28.0131 100.426 27.9143 97.3669C27.2054 75.3098 37.5059 50.17 57.6188 30.1386C59.1417 28.6243 60.6928 27.1636 62.2716 25.7607C45.2754 44.8748 36.6401 67.7353 37.2908 87.9904C37.3896 91.0492 39.8578 93.5174 42.9146 93.6141C63.1735 94.2649 86.0319 85.6316 105.142 68.6399C103.739 70.2144 102.281 71.7635 100.766 73.2862Z" fill="#E2E2E2"/>
<path d="M128.67 23.6647L107.242 2.23676C113.144 0.975858 118.986 0.404569 124.634 0.543963C127.77 0.621405 130.283 3.13457 130.361 6.27082C130.501 11.9185 129.932 17.7636 128.67 23.6647Z" fill="#FF7258"/>
<path d="M94.4291 48.4888C101.062 48.4888 106.439 43.1119 106.439 36.4792C106.439 29.8466 101.062 24.4697 94.4291 24.4697C87.7964 24.4697 82.4196 29.8466 82.4196 36.4792C82.4196 43.1119 87.7964 48.4888 94.4291 48.4888Z" fill="#00ABE0"/>
<path d="M102.923 44.97C98.2314 49.6616 90.6269 49.6616 85.9357 44.97C81.2463 40.2806 81.2463 32.6761 85.9377 27.9846C86.8358 27.0866 87.843 26.3586 88.915 25.8066C86.5735 30.3262 87.2994 36.0233 91.091 39.8146C94.8846 43.6083 100.582 44.3342 105.101 41.9927C104.549 43.0644 103.821 44.0719 102.923 44.97Z" fill="#099DD1"/>
</g>
<defs>
<clipPath id="clip0">
<rect width="130" height="130" fill="white" transform="translate(0.38324 0.523438)"/>
</clipPath>
</defs>
</svg>
