<svg width="80" height="81" viewBox="0 0 80 81" fill="none" xmlns="http://www.w3.org/2000/svg">
<path d="M49.309 5.93359C84.4783 29.4031 73.0736 55.1926 73.0736 55.1926C73.0736 55.1926 83.0634 66.2474 79.0485 75.9322C79.0485 75.9322 74.9035 69.1674 68.0237 69.1674C61.3738 69.1674 57.4389 75.9322 44.0141 75.9322C14.1547 75.9322 0 51.4627 0 51.4627C26.9095 68.8624 45.2941 56.5326 45.2941 56.5326C33.1444 49.6427 7.37486 16.6484 7.37486 16.6484C29.8394 35.403 39.5342 40.3279 39.5342 40.3279C33.7043 35.648 17.4597 12.7135 17.4597 12.7135C30.4594 25.6082 56.2989 43.5879 56.2989 43.5879C63.7088 23.7182 49.309 5.93359 49.309 5.93359Z" fill="#FF5722"/>
</svg>
