<svg width="131" height="131" viewBox="0 0 131 131" fill="none" xmlns="http://www.w3.org/2000/svg">
<g clip-path="url(#clip0)">
<path d="M30.0115 27.9441L46.9408 28.8576C48.6527 28.9498 50.3159 29.3465 51.886 30.0348C52.6735 30.38 53.4312 30.7985 54.1394 31.2786C54.4082 31.4611 54.67 31.6505 54.918 31.8449C54.9884 31.8995 55.0588 31.954 55.1252 32.0086C55.4317 32.2565 55.7243 32.5144 55.9961 32.7732C56.0139 32.7901 56.0318 32.807 56.0516 32.8248C58.1076 34.8094 59.5051 37.3306 60.0923 40.1176C60.2787 41.0004 61.0573 41.6321 61.9599 41.6321H117.157C117.711 41.6321 118.236 41.3921 118.598 40.9746C118.961 40.556 119.124 40.0016 119.046 39.4541C117.337 27.4789 111.23 17.4219 101.387 10.3711C92.4681 3.98184 80.8896 0.463867 68.7855 0.463867C58.181 0.463867 49.1267 3.15665 41.8716 8.46881C36.3204 12.5323 31.7858 18.1658 28.3948 25.2116C28.1181 25.7859 28.1469 26.4613 28.4722 27.0098C28.7965 27.5593 29.3737 27.9094 30.0115 27.9441Z" fill="#FFC89F"/>
<path d="M117.051 52.6631H61.9589C61.0573 52.6631 60.2787 53.2949 60.0923 54.1776C59.5041 56.9666 58.1056 59.4888 56.0526 61.4694C56.0328 61.4873 56.0149 61.5051 55.9971 61.521C55.7243 61.7818 55.4307 62.0397 55.1282 62.2857C55.0588 62.3412 54.9884 62.3968 54.917 62.4523C54.67 62.6447 54.4082 62.8351 54.1394 63.0167C53.4312 63.4967 52.6725 63.9152 51.885 64.2604C50.3159 64.9497 48.6517 65.3454 46.9408 65.4377L17.4918 67.0276C16.9285 67.0226 16.372 66.9304 15.8375 66.7538C15.654 66.6943 15.4705 66.6219 15.2939 66.5426C15.2364 66.5158 15.1799 66.488 15.1233 66.4602C14.6493 66.2252 14.0988 66.1964 13.6029 66.3829C13.108 66.5683 12.7122 66.9512 12.5109 67.4411C11.5736 69.7094 10.7207 71.7655 10.0324 73.4218C9.40256 74.9373 9.57017 76.6571 10.4807 78.0218C11.3921 79.3876 12.9166 80.2028 14.559 80.2028H20.5615C21.4382 84.7245 24.0507 97.7312 26.0879 103.112C28.0011 108.162 32.5238 111.105 39.1669 111.624C41.949 111.84 44.5317 111.585 46.2207 111.329L49.333 128.889C49.4947 129.8 50.2862 130.464 51.2115 130.464H103.203C103.761 130.464 104.29 130.22 104.653 129.798C105.015 129.375 105.174 128.815 105.09 128.264L100.377 97.7619C110.816 82.49 117.06 68.0521 118.94 54.8411C119.018 54.2936 118.854 53.7392 118.492 53.3217C118.129 52.9031 117.604 52.6631 117.051 52.6631Z" fill="#FFC89F"/>
<path d="M119.046 39.4541C117.337 27.4789 111.23 17.4219 101.387 10.3711C92.4681 3.98184 80.8896 0.463867 68.7855 0.463867C66.9259 0.463867 65.1148 0.548171 63.3524 0.713805C73.4064 1.61933 82.8495 4.96869 90.3912 10.3711C100.234 17.4219 106.341 27.4789 108.049 39.4541C108.128 40.0016 107.965 40.556 107.602 40.9736C107.24 41.3911 106.715 41.6311 106.161 41.6311H117.156C117.71 41.6311 118.235 41.3911 118.598 40.9736C118.96 40.556 119.124 40.0016 119.046 39.4541Z" fill="#F7B081"/>
<path d="M118.492 53.3207C118.129 52.9031 117.604 52.6631 117.051 52.6631H106.055C106.608 52.6631 107.134 52.9031 107.496 53.3207C107.859 53.7382 108.022 54.2926 107.944 54.8401C106.064 68.0521 99.8194 82.489 89.3806 97.7609L94.0937 128.264C94.179 128.814 94.0193 129.374 93.6563 129.797C93.2943 130.22 92.7646 130.463 92.2082 130.463H103.203C103.761 130.463 104.29 130.22 104.653 129.797C105.015 129.374 105.174 128.814 105.09 128.264L100.377 97.7609C110.816 82.489 117.06 68.0521 118.94 54.8401C119.018 54.2926 118.854 53.7382 118.492 53.3207Z" fill="#F7B081"/>
<path d="M118.335 37.8154H61.9589C61.3836 37.8154 60.8401 38.0743 60.4771 38.5216C60.1151 38.9679 59.9732 39.5541 60.0923 40.1174C60.2976 41.0904 60.4017 42.0832 60.4017 43.0651V51.2297C60.4017 52.2116 60.2976 53.2034 60.0923 54.1774C59.9732 54.7398 60.1151 55.3259 60.4771 55.7732C60.8401 56.2196 61.3836 56.4794 61.9589 56.4794H118.335C121.353 56.4794 123.809 54.0227 123.809 51.0046V43.2893C123.808 40.2712 121.353 37.8154 118.335 37.8154Z" fill="#243133"/>
<path d="M60.3898 42.5962C60.3948 42.4405 60.4017 42.2838 60.4017 42.1281V38.626C60.0982 39.0574 59.9822 39.597 60.0923 40.1177C60.2658 40.9369 60.362 41.7681 60.3898 42.5962Z" fill="#1D2728"/>
<path d="M118.335 47.3772H61.9589C61.3836 47.3772 60.8401 47.1174 60.4771 46.6711C60.4503 46.6374 60.4265 46.6016 60.4017 46.5669V51.2295C60.4017 52.2114 60.2976 53.2032 60.0923 54.1771C59.9732 54.7395 60.1151 55.3257 60.4771 55.773C60.8401 56.2193 61.3836 56.4791 61.9589 56.4791H118.335C121.353 56.4791 123.809 54.0224 123.809 51.0043V43.289C123.809 43.0539 123.79 42.8238 123.76 42.5957C123.418 45.2875 121.118 47.3772 118.335 47.3772Z" fill="#1D2728"/>
<path d="M47.1461 25.047L17.6426 23.4551C17.6078 23.4531 17.5731 23.4521 17.5394 23.4521C12.4385 23.4521 8.28775 27.6019 8.28775 32.7028V61.5914C8.28775 66.6923 12.4385 70.8431 17.5394 70.8431C17.5741 70.8431 17.6078 70.8421 17.6426 70.8401L47.1461 69.2472C56.7191 68.7305 64.2182 60.8168 64.2182 51.2299V43.0653C64.2182 33.4784 56.7191 25.5637 47.1461 25.047Z" fill="#3E5359"/>
<path d="M47.1461 60.3309L17.6426 61.9237C17.6078 61.9247 17.5731 61.9257 17.5394 61.9257C12.4385 61.9257 8.28775 57.776 8.28775 52.6751V61.5915C8.28775 66.6924 12.4385 70.8431 17.5394 70.8431C17.5741 70.8431 17.6078 70.8421 17.6426 70.8402L47.1461 69.2473C56.7191 68.7306 64.2182 60.8169 64.2182 51.23V43.0654C64.2182 42.9384 64.2113 42.8144 64.2093 42.6895C64.0149 52.1058 56.5931 59.8211 47.1461 60.3309Z" fill="#334549"/>
<path d="M47.1461 25.047L37.59 24.5312C45.3995 26.982 51.0062 34.2709 51.0062 42.8124V51.4828C51.0062 60.0243 45.3995 67.3132 37.59 69.763L47.1461 69.2472C56.7191 68.7305 64.2182 60.8168 64.2182 51.2299V43.0653C64.2182 33.4784 56.7191 25.5637 47.1461 25.047Z" fill="#80E7FF"/>
<path d="M21.4124 23.6584L17.6426 23.4551C17.6078 23.4531 17.5731 23.4521 17.5394 23.4521C12.4385 23.4521 8.28775 27.6019 8.28775 32.7038V61.5914C8.28775 66.6923 12.4385 70.8431 17.5394 70.8431C17.5741 70.8431 17.6078 70.8421 17.6426 70.8401L21.4124 70.6368C22.4241 70.5822 23.2176 69.7451 23.2176 68.7315V25.5637C23.2176 24.5501 22.4251 23.713 21.4124 23.6584Z" fill="#243133"/>
<path d="M17.6426 61.9235C17.6079 61.9245 17.5732 61.9255 17.5395 61.9255C12.4385 61.9255 8.28775 57.7757 8.28775 52.6748V61.5913C8.28775 66.6922 12.4385 70.843 17.5395 70.843C17.5742 70.843 17.6079 70.842 17.6426 70.84L21.4125 70.6367C22.4242 70.5821 23.2176 69.745 23.2176 68.7314V61.622L17.6426 61.9235Z" fill="#1D2728"/>
<path d="M48.9354 60.1455C46.6254 64.692 42.554 68.206 37.59 69.7632L47.1461 69.2475C56.7192 68.7307 64.2184 60.817 64.2184 51.23V43.0654C64.2184 42.9384 64.2114 42.8144 64.2094 42.6895C64.0279 51.5018 57.5146 58.8254 48.9354 60.1455Z" fill="#47DBF4"/>
</g>
<defs>
<clipPath id="clip0">
<rect width="130" height="130" fill="white" transform="translate(0.924133 0.463867)"/>
</clipPath>
</defs>
</svg>
