<svg width="130" height="131" viewBox="0 0 130 131" fill="none" xmlns="http://www.w3.org/2000/svg">
<g clip-path="url(#clip0)">
<path d="M124.355 89.0792H19.8513V24.2637H127.909V85.5245C127.909 87.4883 126.317 89.0792 124.355 89.0792Z" fill="#1DC2FF"/>
<path d="M113.289 24.2637V77.9539C113.289 79.3564 112.152 80.493 110.75 80.493H19.8513V89.0792H124.23C126.262 89.0792 127.909 87.4318 127.909 85.3995V24.2637H113.289Z" fill="#00A2FF"/>
<path d="M104.502 113.905H3.55469C1.59187 113.905 0 112.313 0 110.351V49.0898H108.057V110.351C108.057 112.313 106.466 113.905 104.502 113.905Z" fill="#9AF1FF"/>
<path d="M93.4365 49.0898V102.779C93.4365 104.182 92.2999 105.318 90.8974 105.318H0V110.226C0 112.258 1.64742 113.905 3.67966 113.905H104.377C106.41 113.905 108.057 112.258 108.057 110.226V49.0898H93.4365Z" fill="#32E4FF"/>
<path d="M40.75 71.827H13.2785C12.2113 71.827 11.3455 70.9612 11.3455 69.894C11.3455 68.8268 12.2113 67.9619 13.2785 67.9619H40.75C41.8172 67.9619 42.683 68.8268 42.683 69.894C42.683 70.9612 41.8172 71.827 40.75 71.827Z" fill="#1DC2FF"/>
<path d="M101.62 71.827H83.2793C82.2121 71.827 81.3472 70.9612 81.3472 69.894C81.3472 68.8268 82.2121 67.9619 83.2793 67.9619H101.62C102.688 67.9619 103.553 68.8268 103.553 69.894C103.553 70.9612 102.688 71.827 101.62 71.827Z" fill="#1DC2FF"/>
<path d="M64.7649 71.827H50.3131C49.2459 71.827 48.381 70.9612 48.381 69.894C48.381 68.8268 49.2459 67.9619 50.3131 67.9619H64.7649C65.8321 67.9619 66.697 68.8268 66.697 69.894C66.697 70.9612 65.8321 71.827 64.7649 71.827Z" fill="#1DC2FF"/>
<path d="M90.3509 85.6112H62.8785C61.8113 85.6112 60.9464 84.7454 60.9464 83.6782C60.9464 82.611 61.8113 81.7461 62.8785 81.7461H90.3509C91.4181 81.7461 92.283 82.611 92.283 83.6782C92.283 84.7454 91.4181 85.6112 90.3509 85.6112Z" fill="#1DC2FF"/>
<path d="M53.4949 85.6112H39.043C37.9758 85.6112 37.111 84.7454 37.111 83.6782C37.111 82.611 37.9758 81.7461 39.043 81.7461H53.4949C54.5621 81.7461 55.4279 82.611 55.4279 83.6782C55.4279 84.7454 54.5621 85.6112 53.4949 85.6112Z" fill="#1DC2FF"/>
<path d="M72.6489 99.8221H45.1765C44.1093 99.8221 43.2444 98.9573 43.2444 97.8901C43.2444 96.8229 44.1093 95.958 45.1765 95.958H72.6489C73.7161 95.958 74.581 96.8229 74.581 97.8901C74.581 98.9573 73.7161 99.8221 72.6489 99.8221Z" fill="#1DC2FF"/>
<path d="M27.7046 99.8221H13.2537C12.1865 99.8221 11.3217 98.9573 11.3217 97.8901C11.3217 96.8229 12.1865 95.958 13.2537 95.958H27.7056C28.7728 95.958 29.6376 96.8229 29.6376 97.8901C29.6376 98.9573 28.7728 99.8221 27.7046 99.8221Z" fill="#1DC2FF"/>
<path d="M128.068 99.8221H123.095C122.028 99.8221 121.163 98.9573 121.163 97.8901C121.163 96.8229 122.028 95.958 123.095 95.958H128.068C129.135 95.958 130 96.8229 130 97.8901C130 98.9573 129.135 99.8221 128.068 99.8221Z" fill="#1DC2FF"/>
<path d="M112.054 99.8221H92.527C91.4598 99.8221 90.595 98.9573 90.595 97.8901C90.595 96.8229 91.4608 95.958 92.527 95.958H112.054C113.121 95.958 113.987 96.8229 113.987 97.8901C113.987 98.9573 113.121 99.8221 112.054 99.8221Z" fill="#1DC2FF"/>
<path d="M108.057 58.2265H0V44.459C0 42.4962 1.59187 40.9043 3.55469 40.9043H104.502C106.466 40.9043 108.057 42.4962 108.057 44.459V58.2265Z" fill="#005CA0"/>
<path d="M127.909 33.4013H19.8513V19.6338C19.8513 17.671 21.4432 16.0791 23.406 16.0791H124.355C126.317 16.0791 127.909 17.671 127.909 19.6338V33.4013Z" fill="#005CA0"/>
<path d="M108.057 58.2265H93.4365V40.9043H104.502C106.466 40.9043 108.057 42.4962 108.057 44.459V58.2265Z" fill="#005182"/>
<path d="M127.909 33.4013H113.289V16.0791H124.23C126.262 16.0791 127.909 17.7265 127.909 19.7588V33.4013Z" fill="#005182"/>
<path d="M16.977 90.0049C16.4821 90.0049 15.9882 89.8155 15.6103 89.4386L11.2185 85.0458C10.4637 84.291 10.4637 83.0671 11.2185 82.3134L15.6103 77.9206C16.365 77.1658 17.589 77.1658 18.3437 77.9206C19.0985 78.6754 19.0985 79.8993 18.3437 80.653L15.3177 83.6791L18.3437 86.7051C19.0985 87.4599 19.0985 88.6838 18.3437 89.4386C17.9658 89.8155 17.4719 90.0049 16.977 90.0049Z" fill="#1DC2FF"/>
<path d="M24.8729 90.0049C24.378 90.0049 23.883 89.8155 23.5061 89.4386C22.7514 88.6838 22.7514 87.4609 23.5061 86.7051L26.5322 83.6791L23.5061 80.653C22.7514 79.8983 22.7514 78.6754 23.5061 77.9206C24.2609 77.1658 25.4848 77.1658 26.2396 77.9206L30.6314 82.3134C31.3862 83.0671 31.3862 84.291 30.6314 85.0458L26.2396 89.4386C25.8617 89.8155 25.3668 90.0049 24.8729 90.0049Z" fill="#1DC2FF"/>
<path d="M39.3406 104.215C38.8457 104.215 38.3508 104.026 37.9739 103.65L33.5811 99.2568C32.8263 98.502 32.8263 97.2781 33.5811 96.5233L37.9739 92.1315C38.7286 91.3767 39.9526 91.3767 40.7063 92.1315C41.4621 92.8863 41.4621 94.1092 40.7063 94.864L37.6803 97.89L40.7063 100.916C41.4621 101.671 41.4621 102.895 40.7063 103.65C40.3294 104.026 39.8345 104.215 39.3406 104.215Z" fill="#1DC2FF"/>
<path d="M78.8865 104.215C78.3925 104.215 77.8976 104.026 77.5207 103.65C76.766 102.895 76.766 101.671 77.5207 100.916L80.5468 97.89L77.5207 94.864C76.766 94.1092 76.766 92.8863 77.5207 92.1315C78.2745 91.3767 79.4984 91.3767 80.2532 92.1315L84.646 96.5233C85.4008 97.2781 85.4008 98.502 84.646 99.2568L80.2532 103.65C79.8763 104.026 79.3814 104.215 78.8865 104.215Z" fill="#1DC2FF"/>
<path d="M70.7704 75.2558C70.2755 75.2558 69.7806 75.0663 69.4037 74.6894C68.6489 73.9346 68.6489 72.7107 69.4037 71.956L75.307 66.0526C76.0618 65.2989 77.2857 65.2989 78.0405 66.0526C78.7952 66.8074 78.7952 68.0313 78.0405 68.7861L72.1371 74.6894C71.7592 75.0663 71.2653 75.2558 70.7704 75.2558Z" fill="#1DC2FF"/>
<path d="M33.353 24.6834C33.353 26.7474 31.6808 28.4196 29.6178 28.4196C27.5548 28.4196 25.8816 26.7474 25.8816 24.6834C25.8816 22.6205 27.5548 20.9482 29.6178 20.9482C31.6808 20.9482 33.353 22.6205 33.353 24.6834Z" fill="#FF6914"/>
<path d="M46.9578 24.6834C46.9578 26.7474 45.2856 28.4196 43.2226 28.4196C41.1596 28.4196 39.4864 26.7474 39.4864 24.6834C39.4864 22.6205 41.1596 20.9482 43.2226 20.9482C45.2856 20.9482 46.9578 22.6205 46.9578 24.6834Z" fill="#FAD200"/>
<path d="M60.5626 24.6834C60.5626 26.7474 58.8904 28.4196 56.8274 28.4196C54.7644 28.4196 53.0912 26.7474 53.0912 24.6834C53.0912 22.6205 54.7644 20.9482 56.8274 20.9482C58.8904 20.9482 60.5626 22.6205 60.5626 24.6834Z" fill="#32E4FF"/>
<path d="M13.5017 49.5096C13.5017 51.5726 11.8295 53.2448 9.76646 53.2448C7.70348 53.2448 6.03027 51.5726 6.03027 49.5096C6.03027 47.4466 7.70348 45.7734 9.76646 45.7734C11.8295 45.7734 13.5017 47.4466 13.5017 49.5096Z" fill="#FF6914"/>
<path d="M27.1065 49.5096C27.1065 51.5726 25.4342 53.2448 23.3713 53.2448C21.3083 53.2448 19.6351 51.5726 19.6351 49.5096C19.6351 47.4466 21.3083 45.7734 23.3713 45.7734C25.4342 45.7734 27.1065 47.4466 27.1065 49.5096Z" fill="#FAD200"/>
<path d="M40.7113 49.5096C40.7113 51.5726 39.039 53.2448 36.9761 53.2448C34.9121 53.2448 33.2399 51.5726 33.2399 49.5096C33.2399 47.4466 34.9121 45.7734 36.9761 45.7734C39.039 45.7734 40.7113 47.4466 40.7113 49.5096Z" fill="#32E4FF"/>
</g>
<defs>
<clipPath id="clip0">
<rect width="130" height="130" fill="white" transform="translate(0 0.0830078)"/>
</clipPath>
</defs>
</svg>
