<svg width="131" height="131" viewBox="0 0 131 131" fill="none" xmlns="http://www.w3.org/2000/svg">
<g clip-path="url(#clip0)">
<path d="M105.188 130.767H18.6883C16.7255 130.767 15.1336 129.175 15.1336 127.212V11.627H108.743V127.212C108.743 129.175 107.151 130.767 105.188 130.767Z" fill="#9AF1FF"/>
<path d="M98.3682 11.627V119.526C98.3682 121.548 96.7298 123.186 94.7084 123.186H15.1336V127.107C15.1336 129.128 16.7721 130.767 18.7934 130.767H105.083C107.104 130.767 108.743 129.128 108.743 127.107V11.627H98.3682Z" fill="#32E4FF"/>
<path d="M108.743 22.5847H15.1336V4.32129C15.1336 2.35847 16.7255 0.766602 18.6883 0.766602H105.188C107.151 0.766602 108.743 2.35847 108.743 4.32129V22.5847Z" fill="#005CA0"/>
<path d="M105.083 0.766602H94.7084C96.7298 0.766602 98.3683 2.40509 98.3683 4.42642V22.5847H108.743V4.42642C108.743 2.40509 107.104 0.766602 105.083 0.766602V0.766602Z" fill="#005182"/>
<path d="M31.3251 11.607C31.3251 14.0816 29.3196 16.0871 26.845 16.0871C24.3714 16.0871 22.366 14.0816 22.366 11.607C22.366 9.13339 24.3714 7.12793 26.845 7.12793C29.3196 7.12793 31.3251 9.13339 31.3251 11.607Z" fill="#FF6914"/>
<path d="M47.6405 11.607C47.6405 14.0816 45.6351 16.0871 43.1605 16.0871C40.6859 16.0871 38.6804 14.0816 38.6804 11.607C38.6804 9.13339 40.6859 7.12793 43.1605 7.12793C45.6351 7.12793 47.6405 9.13339 47.6405 11.607Z" fill="#FAD200"/>
<path d="M63.955 11.607C63.955 14.0816 61.9495 16.0871 59.4749 16.0871C57.0013 16.0871 54.9949 14.0816 54.9949 11.607C54.9949 9.13339 57.0013 7.12793 59.4749 7.12793C61.9495 7.12793 63.955 9.13339 63.955 11.607Z" fill="#32E4FF"/>
<path d="M89.8237 100.688H32.1374C30.4553 100.688 29.0905 99.3232 29.0905 97.6411V42.3252C29.0905 40.6431 30.4553 39.2783 32.1374 39.2783H89.8247C91.5068 39.2783 92.8716 40.6431 92.8716 42.3252V97.6411C92.8706 99.3232 91.5068 100.688 89.8237 100.688Z" fill="#FFDED5"/>
<path d="M89.7344 39.2783H76.1505C77.8822 39.2783 79.2866 40.6827 79.2866 42.4155V100.688H89.7344C91.4662 100.688 92.8706 99.2835 92.8706 97.5508V42.4155C92.8706 40.6827 91.4662 39.2783 89.7344 39.2783Z" fill="#F7C6BA"/>
<path d="M47.9996 62.7377C47.2091 62.1941 46.2738 61.9035 45.3137 61.9065C42.8739 61.9135 38.0407 61.9273 35.8428 61.9273C34.8798 61.9273 33.9177 61.9273 32.9041 61.9273C33.1431 60.0796 33.4228 58.3369 33.5825 56.5834C33.8463 53.6873 33.7481 50.8229 32.1582 48.2462C30.4196 45.4254 27.701 44.4475 24.7642 45.4889C24.2465 45.6734 24.0302 45.8945 24.0947 46.4896C24.3466 48.8125 24.5797 51.1393 24.7334 53.4711C24.7771 54.1277 24.6789 54.8844 24.3833 55.4607C22.0932 59.912 19.7267 64.3236 17.4237 68.7679C13.4574 68.7699 8.59354 68.7669 6.88661 68.7421C5.71626 68.7283 4.75916 69.6735 4.75916 70.8438V88.7194C4.75916 89.8888 5.71626 90.834 6.88661 90.8201C9.94539 90.7755 23.1445 90.8012 23.1445 90.8012V90.7824C29.2393 90.836 35.336 90.83 41.4317 90.7695C44.0135 90.7437 45.9673 88.4149 45.6857 85.9433C45.6262 85.4246 45.4516 84.9178 45.3316 84.4099C50.0427 82.7427 48.3864 77.7558 48.3864 77.7558C48.3864 77.7558 50.7945 76.5994 50.7945 73.9581C50.7945 71.3169 48.9081 70.094 48.9081 70.094C50.8709 67.8654 50.4464 64.4228 47.9996 62.7377Z" fill="#00A2FF"/>
<path d="M50.7945 73.9579C50.7945 71.3167 48.9081 70.0938 48.9081 70.0938C50.8709 67.8651 50.4464 64.4225 47.9996 62.7384C47.2091 62.1939 46.2738 61.9033 45.3137 61.9063C45.0033 61.9073 44.6542 61.9083 44.2763 61.9092C44.7216 63.4684 44.4052 65.2229 43.2369 66.548C43.2369 66.548 45.1243 67.7709 45.1243 70.4121C45.1243 73.0534 42.7162 74.2098 42.7162 74.2098C42.7162 74.2098 44.3725 79.1977 39.6613 80.8639C39.7814 81.3728 39.9549 81.8786 40.0144 82.3973C40.2971 84.8689 38.3432 87.1977 35.7605 87.2235C29.6658 87.284 23.569 87.29 17.4733 87.2364V87.2562C17.4733 87.2562 9.75992 87.2404 4.75916 87.2533V88.7192C4.75916 89.8885 5.71626 90.8347 6.88661 90.8199C9.94539 90.7752 23.1445 90.801 23.1445 90.801V90.7822C29.2393 90.8357 35.337 90.8298 41.4317 90.7693C44.0145 90.7435 45.9673 88.4147 45.6857 85.9431C45.6262 85.4243 45.4526 84.9175 45.3326 84.4097C50.0427 82.7425 48.3874 77.7556 48.3874 77.7556C48.3874 77.7556 50.7945 76.5991 50.7945 73.9579Z" fill="#0088FF"/>
<path d="M106.008 94.9414C94.277 94.9345 84.9102 85.411 84.9053 73.8444C84.9003 62.2589 94.3246 52.6174 106.235 52.7384C117.941 52.8584 127.197 62.4513 127.109 74.0021C127.023 85.4685 117.712 94.9325 106.008 94.9414Z" fill="#FAB700"/>
<path d="M106.772 62.3818L109.719 68.3536C109.843 68.6055 110.083 68.7791 110.36 68.8197L116.951 69.7768C117.649 69.879 117.929 70.7379 117.423 71.2308L112.654 75.8785C112.453 76.0749 112.362 76.3566 112.409 76.6333L113.535 83.1972C113.654 83.8934 112.924 84.4241 112.298 84.0948L106.404 80.9963C106.156 80.8654 105.859 80.8654 105.611 80.9963L99.7161 84.0948C99.0913 84.4241 98.3603 83.8934 98.4803 83.1972L99.6061 76.6333C99.6537 76.3566 99.5614 76.0749 99.3611 75.8785L94.5924 71.2308C94.0866 70.7379 94.3653 69.879 95.0645 69.7768L101.654 68.8197C101.932 68.7791 102.172 68.6055 102.296 68.3536L105.244 62.3818C105.556 61.749 106.46 61.749 106.772 62.3818Z" fill="#FFEE57"/>
<path d="M81.778 124.87C70.0468 124.863 60.68 115.34 60.6751 103.773C60.6691 92.1876 70.0944 82.5461 82.0052 82.6681C93.7106 82.7872 102.966 92.381 102.879 103.931C102.793 115.397 93.4815 124.861 81.778 124.87ZM81.9724 98.4044C81.9486 98.3548 81.9357 98.331 81.9268 98.3072C81.4537 97.0347 80.5948 96.1033 79.3838 95.5092C77.9674 94.814 76.4668 94.6087 74.9156 94.8844C72.5898 95.298 70.6964 97.0337 70.0597 99.299C69.8415 100.073 69.7929 100.86 69.8415 101.662C69.9089 102.768 70.1261 103.839 70.5189 104.875C71.0287 106.221 71.7815 107.423 72.681 108.539C73.6917 109.792 74.8502 110.899 76.086 111.927C77.8157 113.367 79.6704 114.632 81.5836 115.814C81.7126 115.893 81.8465 116.015 81.9804 116.018C82.1053 116.021 82.2353 115.894 82.3582 115.818C84.3449 114.591 86.269 113.276 88.0553 111.767C89.294 110.721 90.4495 109.593 91.4483 108.312C92.2467 107.288 92.9201 106.189 93.3923 104.976C93.7979 103.938 94.032 102.863 94.1014 101.75C94.1421 101.112 94.149 100.476 94.0151 99.8504C93.5103 97.4929 92.1148 95.904 89.8505 95.0907C89.0362 94.7991 88.1872 94.7297 87.3233 94.7932C86.5507 94.8497 85.7999 94.9895 85.0798 95.2762C83.6298 95.8554 82.5725 96.8333 82.019 98.3171C82.0101 98.3409 81.9952 98.3627 81.9724 98.4044Z" fill="#FF738B"/>
<path d="M106.235 52.7394C104.614 52.7226 103.041 52.8932 101.529 53.2185C111.131 55.3003 118.198 63.9034 118.122 74.0021C118.047 83.955 111.02 92.3944 101.513 94.4564C102.96 94.7708 104.463 94.9404 106.008 94.9414C117.712 94.9325 127.024 85.4685 127.11 74.0021C127.197 62.4523 117.941 52.8584 106.235 52.7394Z" fill="#FAA200"/>
<path d="M82.0051 82.6681C80.3835 82.6513 78.8105 82.8219 77.299 83.1472C86.9008 85.229 93.9675 93.8321 93.8921 103.931C93.8167 113.884 86.7897 122.323 77.2831 124.385C78.7301 124.7 80.2328 124.869 81.778 124.87C93.4815 124.861 102.793 115.398 102.879 103.931C102.966 92.381 93.7106 82.7872 82.0051 82.6681Z" fill="#EE4A84"/>
<path d="M81.9725 98.4039C81.9953 98.3623 82.0102 98.3404 82.0191 98.3166C82.5725 96.8329 83.6298 95.854 85.0799 95.2757C85.7999 94.9891 86.5507 94.8492 87.3234 94.7927C88.1862 94.7292 89.0362 94.7987 89.8505 95.0902C92.1148 95.9035 93.5103 97.4924 94.0152 99.85C94.1491 100.476 94.1421 101.112 94.1015 101.749C94.032 102.862 93.798 103.937 93.3923 104.976C92.9202 106.189 92.2468 107.288 91.4483 108.311C90.4496 109.593 89.2941 110.72 88.0553 111.767C86.2691 113.275 84.3449 114.59 82.3583 115.817C82.2353 115.894 82.1054 116.021 81.9804 116.018C81.8465 116.015 81.7126 115.893 81.5837 115.813C79.6715 114.631 77.8158 113.367 76.086 111.926C74.8502 110.899 73.6918 109.792 72.6811 108.538C71.7825 107.423 71.0287 106.22 70.5189 104.875C70.1262 103.838 69.909 102.767 69.8415 101.661C69.7929 100.86 69.8415 100.072 70.0597 99.2985C70.6965 97.0332 72.5898 95.2975 74.9157 94.8839C76.4669 94.6082 77.9675 94.8135 79.3838 95.5088C80.5948 96.1029 81.4538 97.0332 81.9269 98.3067C81.9358 98.3305 81.9487 98.3543 81.9725 98.4039Z" fill="#FFDED5"/>
<path d="M116.951 69.7778L111.517 68.9873L106.694 73.6885C106.359 74.0149 106.207 74.485 106.285 74.9462L107.415 81.5269L112.298 84.0947C112.924 84.424 113.654 83.8934 113.535 83.1971L112.334 76.1919L117.423 71.2308C117.929 70.7379 117.649 69.879 116.951 69.7778Z" fill="#FAD200"/>
<path d="M73.3734 95.3809C73.3446 95.3947 73.3139 95.4066 73.2851 95.4215C73.293 95.4394 73.3039 95.4592 73.3168 95.488C73.3436 95.4384 73.3615 95.4126 73.3724 95.3838C73.3724 95.3828 73.3734 95.3819 73.3734 95.3809Z" fill="#F7C6BA"/>
<path d="M94.0151 99.8504C93.5103 97.4929 92.1148 95.904 89.8505 95.0907C89.0362 94.7991 88.1862 94.7297 87.3223 94.7931C87.121 94.808 86.9216 94.8298 86.7233 94.8566C87.114 95.5499 87.4026 96.3314 87.5891 97.2013C87.7478 97.9432 87.7389 98.6959 87.6913 99.4517C87.6089 100.771 87.3302 102.045 86.8512 103.275C86.2908 104.714 85.4934 106.016 84.5472 107.23C83.363 108.748 81.9933 110.084 80.5254 111.324C79.6823 112.036 78.8115 112.711 77.9208 113.359C79.1051 114.23 80.332 115.04 81.5836 115.814C81.7116 115.893 81.8465 116.016 81.9804 116.019C82.1053 116.021 82.2353 115.895 82.3582 115.819C84.3449 114.592 86.269 113.276 88.0553 111.767C89.2931 110.721 90.4495 109.594 91.4483 108.313C92.2467 107.288 92.9192 106.19 93.3923 104.976C93.7969 103.938 94.032 102.864 94.1014 101.75C94.1411 101.112 94.149 100.476 94.0151 99.8504Z" fill="#F7C6BA"/>
<path d="M42.4265 116.684H29.3524C28.3 116.684 27.4481 115.831 27.4481 114.779C27.4481 113.727 28.3 112.875 29.3524 112.875H42.4265C43.4779 112.875 44.3308 113.727 44.3308 114.779C44.3308 115.831 43.4779 116.684 42.4265 116.684Z" fill="#F4ADA5"/>
<path d="M53.4923 110.235H29.3524C28.3 110.235 27.4481 109.382 27.4481 108.331C27.4481 107.279 28.3 106.427 29.3524 106.427H53.4923C54.5436 106.427 55.3966 107.279 55.3966 108.331C55.3966 109.382 54.5436 110.235 53.4923 110.235Z" fill="#F4ADA5"/>
</g>
<defs>
<clipPath id="clip0">
<rect width="130" height="130" fill="white" transform="translate(0.950562 0.766602)"/>
</clipPath>
</defs>
</svg>
