<svg width="131" height="131" viewBox="0 0 131 131" fill="none" xmlns="http://www.w3.org/2000/svg">
<g clip-path="url(#clip0)">
<path d="M51.773 13.1075L3.023 19.4396C1.66384 19.6151 0.649991 20.7777 0.661163 22.1481V60.0646C0.661163 61.5604 1.87382 62.7731 3.36958 62.7731H52.1196C53.6153 62.7731 54.828 61.5604 54.828 60.0646V15.7887C54.827 15.0108 54.4916 14.2709 53.9071 13.7575C53.3183 13.2512 52.5441 13.0153 51.773 13.1075Z" fill="#F44336"/>
<path d="M49.1539 15.8133L5.71736 21.4553C4.50634 21.6117 3.603 22.6476 3.61295 23.8686V57.6525C3.61295 58.9852 4.69343 60.0657 6.02617 60.0657H49.4627C50.7955 60.0657 51.8759 58.9852 51.8759 57.6525V18.2024C51.875 17.5092 51.5762 16.8499 51.0554 16.3925C50.5308 15.9414 49.841 15.7312 49.1539 15.8133Z" fill="#FB6156"/>
<path d="M129.74 3.86721C129.16 3.34416 128.382 3.09736 127.606 3.19004L62.6064 11.6672C61.2475 11.8427 60.2334 13.0053 60.2448 14.3756V60.0653C60.2448 61.561 61.4575 62.7737 62.9533 62.7737H127.953C129.449 62.7737 130.662 61.561 130.662 60.0653V5.89846C130.66 5.12049 130.325 4.3806 129.74 3.86721Z" fill="#4CAF50"/>
<path d="M126.964 6.19148C126.43 5.7102 125.714 5.48312 125 5.56839L65.1913 13.3685C63.941 13.53 63.0079 14.5997 63.0184 15.8606V57.9012C63.0184 59.2775 64.1342 60.3933 65.5105 60.3933H125.319C126.695 60.3933 127.811 59.2775 127.811 57.9012V8.0605C127.81 7.34466 127.501 6.66387 126.964 6.19148Z" fill="#5DC562"/>
<path d="M52.1196 68.1895H3.36958C1.87382 68.1895 0.661163 69.4021 0.661163 70.8979V108.814C0.649991 110.185 1.66384 111.347 3.02274 111.523L51.7727 117.882C51.8883 117.89 52.0041 117.89 52.1193 117.882C53.6151 117.882 54.8277 116.669 54.8277 115.174V70.8979C54.828 69.4021 53.6153 68.1895 52.1196 68.1895Z" fill="#2196F3"/>
<path d="M49.9499 70.6621H6.05181C4.70492 70.6621 3.61295 71.7541 3.61295 73.101V107.244C3.60289 108.478 4.51583 109.525 5.73949 109.683L49.6376 115.409C49.7416 115.416 49.8459 115.416 49.9497 115.409C51.2966 115.409 52.3885 114.317 52.3885 112.97V73.101C52.3888 71.7541 51.2968 70.6621 49.9499 70.6621Z" fill="#55AFF7"/>
<path d="M127.953 68.1895H62.953C61.4572 68.1895 60.2446 69.4021 60.2446 70.8979V116.588C60.2334 117.958 61.2473 119.121 62.6062 119.296L127.606 127.773C127.722 127.781 127.837 127.781 127.953 127.773C129.448 127.773 130.661 126.56 130.661 125.065V70.8979C130.661 69.4021 129.449 68.1895 127.953 68.1895Z" fill="#FFC107"/>
<path d="M125.319 71.8984H65.5105C64.1342 71.8984 63.0184 72.9601 63.0184 74.2697V114.271C63.0081 115.471 63.941 116.489 65.1913 116.642L125 124.064C125.107 124.071 125.213 124.071 125.319 124.064C126.695 124.064 127.811 123.003 127.811 121.693V74.2697C127.811 72.9601 126.696 71.8984 125.319 71.8984Z" fill="#FFCE3D"/>
</g>
<defs>
<clipPath id="clip0">
<rect width="130" height="130" fill="white" transform="translate(0.661163 0.474609)"/>
</clipPath>
</defs>
</svg>
